<svg width="505" height="448" viewBox="0 0 505 448" fill="none" xmlns="http://www.w3.org/2000/svg">
<g filter="url(#filter0_ii_30_325)">
<path fill-rule="evenodd" clip-rule="evenodd" d="M344.171 14.1762C312.368 -1.72578 289.604 -0.728446 254.713 0.800168L252.644 0.890666C244.577 1.24259 239.012 1.96166 232.481 2.80561C229.643 3.17231 226.623 3.56258 223.135 3.95656C213.258 5.0725 204.285 4.64457 195.802 4.24003C179.056 3.44141 164.222 2.73397 148.113 14.1762C135.894 22.8555 133.141 35.7633 130.389 48.6639C127.632 61.5894 124.876 74.5077 112.603 83.1588C105.25 88.3415 96.6414 88.3044 88.4877 88.2693C78.4201 88.226 69.0464 88.1856 63.5883 97.9773C60.1755 104.1 62.1814 110.393 64.1385 116.533C66.2277 123.087 68.2613 129.467 63.5883 135.279C60.5727 139.03 56.4463 139.733 52.367 140.428C48.118 141.153 43.9201 141.868 41.0817 146.01C34.6957 155.327 41.0817 175.136 41.0817 175.136C41.0817 175.136 43.8748 163.99 48.0837 158.273C52.6869 152.021 56.1144 147.712 63.5883 146.01C77.1457 142.922 73.3817 161.862 69.9884 178.937C69.0229 183.796 68.0874 188.503 67.5895 192.509C67.2869 194.944 67.0647 197.252 66.8521 199.46C65.8944 209.407 65.1319 217.327 58.0867 225.723C54.7236 229.731 51.211 231.506 47.4835 233.391C44.802 234.746 42.0093 236.158 39.0811 238.497C34.8049 241.914 29.8414 245.11 24.9157 248.281C9.46344 258.23 -5.61592 267.939 2.07014 283.464C4.70505 288.786 8.60919 291.053 12.8085 293.491C15.697 295.168 18.7251 296.926 21.5759 299.815C24.1682 302.443 27.6235 304.856 30.9948 307.211C38.9167 312.744 46.3747 317.954 41.0817 324.853C38.0806 328.765 33.7532 327.477 29.2401 326.133C25.0392 324.882 20.6773 323.583 17.0746 326.386C10.7474 331.309 8.57206 345.293 8.57206 345.293C8.57206 345.293 13.2846 340.217 17.0746 338.139C24.6779 333.969 34.1562 328.855 39.0811 336.095C42.3137 340.847 40.873 345.424 39.0811 350.913C37.2859 356.413 32.073 357.635 26.849 358.86C21.6468 360.08 16.4337 361.302 14.5738 366.754C11.174 376.719 21.5759 392.814 21.5759 392.814C21.5759 392.814 23.6962 379.145 30.0784 374.93C41.7748 367.204 46.0987 397.896 39.0811 410.187C35.9782 415.622 29.3743 415.454 23.0699 415.293C16.408 415.123 10.0807 414.962 8.57206 421.429C6.76761 429.164 14.5738 440.846 14.5738 440.846C14.5738 440.846 17.3515 430.518 21.5759 425.517C25.5195 420.848 31.7303 421.173 37.6363 421.483C44.1224 421.823 50.2408 422.143 52.5851 415.808C53.4869 413.371 52.6831 410.861 51.9291 408.507C51.0083 405.632 50.1615 402.988 52.5851 400.99C57.83 396.666 63.3782 404.353 67.4214 409.954L67.5895 410.187C73.8509 418.859 67.5895 437.78 67.5895 437.78C67.5895 437.78 110.011 383.297 108.102 404.056C107.384 411.853 101.099 422.791 101.099 422.791C101.099 422.791 127.861 386.612 132.109 400.99C133.397 405.352 132.109 412.657 132.109 412.657C136.591 411.566 140.969 410.711 145.112 410.187C153.909 409.076 161.756 409.014 169.12 409.595C174.092 408.6 175.786 405.453 177.122 395.88C177.785 404.761 179.625 408.517 186.625 412.119C191.051 412.997 195.437 414.003 199.904 415.027L199.907 415.028C211.273 417.634 223.171 420.362 237.64 421.429C248.023 422.195 257.594 422.409 266.648 422.298C273.477 430.626 280.901 386.218 284.154 386.103C298.242 385.608 276.151 422.065 276.151 422.065C285.784 421.718 294.916 421.073 303.946 420.435C323.488 419.054 342.552 417.708 365.177 419.488C369.444 420.808 367.626 403.986 369.179 400.99C372.813 393.975 374.966 420.435 374.966 420.435C377.49 420.725 380.06 421.055 382.683 421.429C393.844 423.022 404.034 428.633 413.6 433.902C414.808 434.567 416.005 435.226 417.193 435.871C421.475 432.892 417.055 413.568 416.16 409.954C412.587 395.52 434.198 443.33 434.198 443.33C442.073 445.387 449.66 444.57 457.205 437.78C467.955 428.106 473.209 404.056 473.209 404.056L476.71 428.583L483.212 404.056C488.602 403.501 491.746 406.423 495.716 410.187C506.357 420.278 492.215 448 492.215 448C492.215 448 507.22 425.563 504.719 410.187C502.786 398.309 484.22 391.274 470.575 386.103C458.756 381.625 450.629 378.546 460.206 374.93C468.633 371.747 483.212 374.93 483.212 374.93C483.212 374.93 425.872 332.222 448.202 326.386C452.577 325.243 456.693 327.466 460.549 329.548C465.139 332.027 469.36 334.306 473.209 330.474C475.831 327.864 475.579 324.684 475.318 321.402C475.082 318.433 474.839 315.38 476.71 312.59C483.921 301.839 483.212 345.293 483.212 345.293C483.212 345.293 490.933 337.158 492.215 330.474C493.849 321.956 489.544 316.57 484.588 310.37C482.97 308.347 481.283 306.237 479.711 303.903C476.287 298.82 469.928 295.659 464.118 292.772C455.845 288.661 448.685 285.103 452.703 277.332C456.955 269.109 470.341 273.68 479.664 278.189C468.523 271.423 451.233 258.793 448.202 244.118C446.175 234.304 450.731 227.144 455.362 219.864C459.734 212.993 464.174 206.014 463.206 196.597C462.014 184.985 449.501 176.57 438.62 169.251C426.515 161.109 416.429 154.325 426.196 146.01C440.556 133.783 460.441 141.258 473.209 155.207C483.307 166.239 483.212 192.509 483.212 192.509C483.212 192.509 502.599 158.195 489.214 146.01C483.753 141.037 477.911 141.81 471.596 142.645C467.055 143.246 462.27 143.879 457.205 142.433C456.083 142.112 454.988 141.805 453.918 141.504C441.104 137.9 431.851 135.297 422.694 124.548C415.84 116.501 415.997 107.797 416.16 98.7558C416.3 91.0119 416.445 83.0207 412.191 74.9831C406.909 65.0001 392.854 59.0237 380.864 53.9252C366.555 47.8405 355.187 43.0062 365.177 34.1046C366.84 32.6232 366.178 45.3462 366.178 45.3462C366.178 45.3462 373.507 30.0001 366.178 28.9947C360.64 28.2351 356.984 24.7577 353.185 21.1443C350.492 18.5835 347.728 15.9545 344.171 14.1762Z" fill="black"/>
<path fill-rule="evenodd" clip-rule="evenodd" d="M344.171 14.1762C312.368 -1.72578 289.604 -0.728446 254.713 0.800168L252.644 0.890666C244.577 1.24259 239.012 1.96166 232.481 2.80561C229.643 3.17231 226.623 3.56258 223.135 3.95656C213.258 5.0725 204.285 4.64457 195.802 4.24003C179.056 3.44141 164.222 2.73397 148.113 14.1762C135.894 22.8555 133.141 35.7633 130.389 48.6639C127.632 61.5894 124.876 74.5077 112.603 83.1588C105.25 88.3415 96.6414 88.3044 88.4877 88.2693C78.4201 88.226 69.0464 88.1856 63.5883 97.9773C60.1755 104.1 62.1814 110.393 64.1385 116.533C66.2277 123.087 68.2613 129.467 63.5883 135.279C60.5727 139.03 56.4463 139.733 52.367 140.428C48.118 141.153 43.9201 141.868 41.0817 146.01C34.6957 155.327 41.0817 175.136 41.0817 175.136C41.0817 175.136 43.8748 163.99 48.0837 158.273C52.6869 152.021 56.1144 147.712 63.5883 146.01C77.1457 142.922 73.3817 161.862 69.9884 178.937C69.0229 183.796 68.0874 188.503 67.5895 192.509C67.2869 194.944 67.0647 197.252 66.8521 199.46C65.8944 209.407 65.1319 217.327 58.0867 225.723C54.7236 229.731 51.211 231.506 47.4835 233.391C44.802 234.746 42.0093 236.158 39.0811 238.497C34.8049 241.914 29.8414 245.11 24.9157 248.281C9.46344 258.23 -5.61592 267.939 2.07014 283.464C4.70505 288.786 8.60919 291.053 12.8085 293.491C15.697 295.168 18.7251 296.926 21.5759 299.815C24.1682 302.443 27.6235 304.856 30.9948 307.211C38.9167 312.744 46.3747 317.954 41.0817 324.853C38.0806 328.765 33.7532 327.477 29.2401 326.133C25.0392 324.882 20.6773 323.583 17.0746 326.386C10.7474 331.309 8.57206 345.293 8.57206 345.293C8.57206 345.293 13.2846 340.217 17.0746 338.139C24.6779 333.969 34.1562 328.855 39.0811 336.095C42.3137 340.847 40.873 345.424 39.0811 350.913C37.2859 356.413 32.073 357.635 26.849 358.86C21.6468 360.08 16.4337 361.302 14.5738 366.754C11.174 376.719 21.5759 392.814 21.5759 392.814C21.5759 392.814 23.6962 379.145 30.0784 374.93C41.7748 367.204 46.0987 397.896 39.0811 410.187C35.9782 415.622 29.3743 415.454 23.0699 415.293C16.408 415.123 10.0807 414.962 8.57206 421.429C6.76761 429.164 14.5738 440.846 14.5738 440.846C14.5738 440.846 17.3515 430.518 21.5759 425.517C25.5195 420.848 31.7303 421.173 37.6363 421.483C44.1224 421.823 50.2408 422.143 52.5851 415.808C53.4869 413.371 52.6831 410.861 51.9291 408.507C51.0083 405.632 50.1615 402.988 52.5851 400.99C57.83 396.666 63.3782 404.353 67.4214 409.954L67.5895 410.187C73.8509 418.859 67.5895 437.78 67.5895 437.78C67.5895 437.78 110.011 383.297 108.102 404.056C107.384 411.853 101.099 422.791 101.099 422.791C101.099 422.791 127.861 386.612 132.109 400.99C133.397 405.352 132.109 412.657 132.109 412.657C136.591 411.566 140.969 410.711 145.112 410.187C153.909 409.076 161.756 409.014 169.12 409.595C174.092 408.6 175.786 405.453 177.122 395.88C177.785 404.761 179.625 408.517 186.625 412.119C191.051 412.997 195.437 414.003 199.904 415.027L199.907 415.028C211.273 417.634 223.171 420.362 237.64 421.429C248.023 422.195 257.594 422.409 266.648 422.298C273.477 430.626 280.901 386.218 284.154 386.103C298.242 385.608 276.151 422.065 276.151 422.065C285.784 421.718 294.916 421.073 303.946 420.435C323.488 419.054 342.552 417.708 365.177 419.488C369.444 420.808 367.626 403.986 369.179 400.99C372.813 393.975 374.966 420.435 374.966 420.435C377.49 420.725 380.06 421.055 382.683 421.429C393.844 423.022 404.034 428.633 413.6 433.902C414.808 434.567 416.005 435.226 417.193 435.871C421.475 432.892 417.055 413.568 416.16 409.954C412.587 395.52 434.198 443.33 434.198 443.33C442.073 445.387 449.66 444.57 457.205 437.78C467.955 428.106 473.209 404.056 473.209 404.056L476.71 428.583L483.212 404.056C488.602 403.501 491.746 406.423 495.716 410.187C506.357 420.278 492.215 448 492.215 448C492.215 448 507.22 425.563 504.719 410.187C502.786 398.309 484.22 391.274 470.575 386.103C458.756 381.625 450.629 378.546 460.206 374.93C468.633 371.747 483.212 374.93 483.212 374.93C483.212 374.93 425.872 332.222 448.202 326.386C452.577 325.243 456.693 327.466 460.549 329.548C465.139 332.027 469.36 334.306 473.209 330.474C475.831 327.864 475.579 324.684 475.318 321.402C475.082 318.433 474.839 315.38 476.71 312.59C483.921 301.839 483.212 345.293 483.212 345.293C483.212 345.293 490.933 337.158 492.215 330.474C493.849 321.956 489.544 316.57 484.588 310.37C482.97 308.347 481.283 306.237 479.711 303.903C476.287 298.82 469.928 295.659 464.118 292.772C455.845 288.661 448.685 285.103 452.703 277.332C456.955 269.109 470.341 273.68 479.664 278.189C468.523 271.423 451.233 258.793 448.202 244.118C446.175 234.304 450.731 227.144 455.362 219.864C459.734 212.993 464.174 206.014 463.206 196.597C462.014 184.985 449.501 176.57 438.62 169.251C426.515 161.109 416.429 154.325 426.196 146.01C440.556 133.783 460.441 141.258 473.209 155.207C483.307 166.239 483.212 192.509 483.212 192.509C483.212 192.509 502.599 158.195 489.214 146.01C483.753 141.037 477.911 141.81 471.596 142.645C467.055 143.246 462.27 143.879 457.205 142.433C456.083 142.112 454.988 141.805 453.918 141.504C441.104 137.9 431.851 135.297 422.694 124.548C415.84 116.501 415.997 107.797 416.16 98.7558C416.3 91.0119 416.445 83.0207 412.191 74.9831C406.909 65.0001 392.854 59.0237 380.864 53.9252C366.555 47.8405 355.187 43.0062 365.177 34.1046C366.84 32.6232 366.178 45.3462 366.178 45.3462C366.178 45.3462 373.507 30.0001 366.178 28.9947C360.64 28.2351 356.984 24.7577 353.185 21.1443C350.492 18.5835 347.728 15.9545 344.171 14.1762Z" fill="url(#paint0_linear_30_325)"/>
</g>
<g filter="url(#filter1_i_30_325)">
<path d="M124.345 229.267C130.091 252.531 138.689 270.423 126.384 273.462C114.079 276.501 99.4464 260.105 93.701 236.841C87.9555 213.576 93.2729 192.253 105.578 189.214C117.883 186.176 118.6 206.002 124.345 229.267Z" fill="#834315"/>
</g>
<g style="mix-blend-mode:luminosity" filter="url(#filter2_i_30_325)">
<path d="M113.793 222.068C113.047 229.481 114.964 236.92 119.759 242.623C126.383 250.5 132.163 255.742 125.044 257.5C115.438 259.873 106.128 253.928 102.165 237.88C98.2013 221.832 97.4789 210.501 108.479 207.784C115.655 206.012 114.8 212.065 113.793 222.068Z" fill="#723D17"/>
</g>
<g style="mix-blend-mode:luminosity" opacity="0.7">
<path d="M108.044 199.053C99.5444 198.053 93.0444 211.5 96.0444 228" stroke="#723D17" stroke-width="3" stroke-linecap="round"/>
</g>
<g filter="url(#filter3_f_30_325)">
<ellipse cx="97.8166" cy="204.008" rx="0.31567" ry="1" transform="rotate(33.6212 97.8166 204.008)" fill="#6F3511"/>
</g>
<g filter="url(#filter4_ii_30_325)">
<path d="M91.8194 197.425C89.5553 198.557 91.4979 205.368 92.6299 206.5L92.8499 205.5C92.8499 205.5 90.8764 200.435 92.3854 199.688C95.1163 198.338 97.4795 204.783 97.4795 204.783C98.071 203.378 98.0501 203.5 98.0711 203.34C98.4377 200.551 94.0834 195.726 91.8194 197.425Z" fill="#CD970A"/>
</g>
<g filter="url(#filter5_dii_30_325)">
<circle cx="2.5" cy="2.5" r="2.5" transform="matrix(-1 0 0 1 107 252)" fill="#D19700"/>
</g>
<g filter="url(#filter6_dii_30_325)">
<circle cx="3.5" cy="3.5" r="3.5" transform="matrix(-1 0 0 1 114.7 258)" fill="#FFF6DD"/>
</g>
<g filter="url(#filter7_dii_30_325)">
<circle cx="4.5" cy="4.5" r="4.5" transform="matrix(-1 0 0 1 125.7 262)" fill="#D19700"/>
</g>
<g filter="url(#filter8_i_30_325)">
<path d="M371.699 229.267C365.954 252.531 357.355 270.423 369.66 273.462C381.965 276.501 396.598 260.105 402.343 236.841C408.089 213.576 402.772 192.253 390.467 189.214C378.162 186.176 377.445 206.002 371.699 229.267Z" fill="#834315"/>
</g>
<g style="mix-blend-mode:luminosity" filter="url(#filter9_i_30_325)">
<path d="M382.251 222.068C382.998 229.481 381.081 236.92 376.285 242.623C369.662 250.5 363.881 255.742 371 257.5C380.606 259.873 389.916 253.928 393.88 237.88C397.843 221.832 398.566 210.501 387.565 207.784C380.39 206.012 381.244 212.065 382.251 222.068Z" fill="#723D17"/>
</g>
<g style="mix-blend-mode:luminosity" opacity="0.7">
<path d="M388 199.053C396.5 198.053 403 211.5 400 228" stroke="#723D17" stroke-width="3" stroke-linecap="round"/>
</g>
<g filter="url(#filter10_f_30_325)">
<ellipse cx="390.824" cy="256.033" rx="0.5" ry="1.0042" transform="rotate(-23.7689 390.824 256.033)" fill="#6F3511"/>
</g>
<g filter="url(#filter11_ii_30_325)">
<path d="M397 259.5C397 261.985 393.045 262.5 390.56 262.5L391.3 261.5C391.3 261.5 394.173 261.736 395 260.5C396.497 258.264 390 255.758 390 255.758C390.715 255.279 391.075 255 392 255C394.485 255 397 257.015 397 259.5Z" fill="#CD970A"/>
</g>
<g filter="url(#filter12_dii_30_325)">
<circle cx="384.5" cy="261.5" r="3.5" fill="#FFF6DD"/>
</g>
<g filter="url(#filter13_dii_30_325)">
<circle cx="374.5" cy="266.5" r="4.5" fill="#D19700"/>
</g>
<mask id="mask0_30_325" style="mask-type:alpha" maskUnits="userSpaceOnUse" x="113" y="49" width="270" height="321">
<path d="M383 189.941C383 267.78 322.558 369 248 369C173.442 369 113 267.78 113 189.941C113 112.101 173.442 49.0002 248 49.0002C322.558 49.0002 383 112.101 383 189.941Z" fill="#834315"/>
</mask>
<g mask="url(#mask0_30_325)">
<path d="M383 189.941C383 267.78 322.558 369 248 369C173.442 369 113 267.78 113 189.941C113 112.101 173.442 49.0002 248 49.0002C322.558 49.0002 383 112.101 383 189.941Z" fill="#834315"/>
<g filter="url(#filter14_f_30_325)">
<path d="M290.695 358C290.695 358 311.399 346.951 314.195 327C315.831 315.319 310.84 297.685 320.195 290.5C328.891 283.821 363.663 289.061 371.695 249C374.739 233.816 372.161 208.146 377.195 193.5C379.438 186.974 385.195 178 385.195 178C387.766 245.435 371.843 313.709 290.695 358Z" fill="#7B3E13" fill-opacity="0.2"/>
</g>
<g filter="url(#filter15_f_30_325)">
<path d="M204.695 358C204.695 358 183.99 346.951 181.195 327C179.558 315.319 184.549 297.685 175.195 290.5C166.499 283.821 131.726 289.061 123.695 249C120.651 233.816 123.228 208.146 118.195 193.5C115.952 186.974 110.195 178 110.195 178C107.623 245.435 123.547 313.709 204.695 358Z" fill="#7B3E13" fill-opacity="0.2"/>
</g>
<g style="mix-blend-mode:color">
<g filter="url(#filter16_f_30_325)">
<path d="M212.248 257.659C211.305 268.442 184.291 279.59 161.775 277.62C139.258 275.65 125.761 253.304 126.705 242.52C127.648 231.737 150.67 238.6 173.186 240.57C195.703 242.54 213.191 246.876 212.248 257.659Z" fill="#8A4012"/>
<path d="M212.248 257.659C211.305 268.442 184.291 279.59 161.775 277.62C139.258 275.65 125.761 253.304 126.705 242.52C127.648 231.737 150.67 238.6 173.186 240.57C195.703 242.54 213.191 246.876 212.248 257.659Z" fill="url(#paint1_linear_30_325)"/>
</g>
<g filter="url(#filter17_f_30_325)">
<path d="M282.962 257.659C283.905 268.442 310.928 279.59 333.445 277.62C355.961 275.65 369.448 245.303 368.504 234.52C367.561 223.737 344.54 237.6 322.024 239.57C299.507 241.54 282.019 246.876 282.962 257.659Z" fill="#8A4012"/>
<path d="M282.962 257.659C283.905 268.442 310.928 279.59 333.445 277.62C355.961 275.65 369.448 245.303 368.504 234.52C367.561 223.737 344.54 237.6 322.024 239.57C299.507 241.54 282.019 246.876 282.962 257.659Z" fill="url(#paint2_linear_30_325)"/>
</g>
</g>
<g filter="url(#filter18_f_30_325)">
<path d="M262.57 339.5C262.57 341.709 255.854 346.5 247.57 346.5C239.286 346.5 232.57 341.709 232.57 339.5C232.57 337.291 239.286 339.5 247.57 339.5C255.854 339.5 262.57 337.291 262.57 339.5Z" fill="#7B3E13"/>
</g>
<g style="mix-blend-mode:screen" filter="url(#filter19_f_30_325)">
<path d="M259.57 353.537C259.57 356.575 254.197 363 247.57 363C240.942 363 235.57 356.575 235.57 353.537C235.57 350.499 240.942 351.037 247.57 351.037C254.197 351.037 259.57 350.499 259.57 353.537Z" fill="#834315" fill-opacity="0.35"/>
<path d="M259.57 353.537C259.57 356.575 254.197 363 247.57 363C240.942 363 235.57 356.575 235.57 353.537C235.57 350.499 240.942 351.037 247.57 351.037C254.197 351.037 259.57 350.499 259.57 353.537Z" fill="#863202" fill-opacity="0.15"/>
</g>
<g style="mix-blend-mode:screen" opacity="0.6" filter="url(#filter20_f_30_325)">
<path d="M306.354 77.2386C314.126 80.7308 310.785 87.6554 303.933 92.7199C294.148 99.952 280.623 111.797 269.292 122.186C258.777 131.826 236.789 131.765 226.396 121.993C216.558 112.744 205.05 102.372 195.803 95.1339C187.493 88.6299 183.311 78.5909 193.123 74.708C208.233 68.7283 232.54 64.0434 247.754 64.0002C264.248 63.9535 291.614 70.6156 306.354 77.2386Z" fill="#834315" fill-opacity="0.3"/>
</g>
</g>
<g filter="url(#filter21_f_30_325)">
<path d="M210 307.214C210.198 305.795 232.6 291.492 248 301.575C261.475 291.492 286.981 305.954 287 307.214C247.858 310.546 247.94 310.692 210 307.214Z" fill="#872303"/>
<path d="M210 307.214C210.198 305.795 232.6 291.492 248 301.575C261.475 291.492 286.981 305.954 287 307.214C247.858 310.546 247.94 310.692 210 307.214Z" fill="#863202" fill-opacity="0.55"/>
<path d="M210 307.214C210.198 305.795 232.6 291.492 248 301.575C261.475 291.492 286.981 305.954 287 307.214C247.858 310.546 247.94 310.692 210 307.214Z" stroke="#3B1404" stroke-opacity="0.6" stroke-width="2" stroke-linecap="round"/>
</g>
<g filter="url(#filter22_f_30_325)">
<path d="M206 306C206 306 231.896 334.5 249.5 334.5C267.104 334.5 291 306 291 306C253 325 246 325 206 306Z" fill="#872303"/>
<path d="M206 306C206 306 231.896 334.5 249.5 334.5C267.104 334.5 291 306 291 306C253 325 246 325 206 306Z" fill="#863202" fill-opacity="0.45"/>
<path d="M206 306C206 306 231.896 334.5 249.5 334.5C267.104 334.5 291 306 291 306C253 325 246 325 206 306Z" stroke="#3B1404" stroke-opacity="0.6" stroke-width="2" stroke-linecap="round"/>
</g>
<g filter="url(#filter23_i_30_325)">
<path d="M200.007 302.06C199.832 301.953 202.884 302.338 204.312 302.629C210.425 303.874 216.577 304.684 222.729 305.171C247.162 307.105 272.785 307.598 296.978 301.577C297.436 301.463 290.672 306.15 287.441 308.108C280.838 312.109 274.139 315.755 267.279 318.382C243.476 327.498 222.21 315.54 200.007 302.06Z" fill="#3B1404"/>
</g>
<path d="M200.059 302.542C200.058 302.542 200.06 302.542 200.064 302.542L200.059 302.542ZM297.098 302.063C297.096 302.063 297.095 302.063 297.092 302.064C297.094 302.063 297.096 302.063 297.099 302.062L297.098 302.063ZM204.412 302.139C203.68 301.99 202.546 301.819 201.623 301.7C201.16 301.64 200.743 301.591 200.45 301.565C200.307 301.552 200.18 301.543 200.09 301.542C200.089 301.542 200.088 301.542 200.088 301.542C200.057 301.541 199.978 301.54 199.9 301.558C199.878 301.563 199.827 301.576 199.769 301.606C199.724 301.63 199.575 301.717 199.519 301.916C199.455 302.141 199.564 302.311 199.617 302.375C199.67 302.438 199.726 302.474 199.748 302.487C221.913 315.945 243.394 328.065 267.457 318.849C274.358 316.207 281.086 312.543 287.7 308.536C289.328 307.549 291.837 305.881 293.876 304.478C294.897 303.775 295.805 303.136 296.431 302.678C296.742 302.45 296.991 302.262 297.149 302.131C297.221 302.072 297.302 302.004 297.357 301.941C297.372 301.924 297.398 301.893 297.422 301.853L297.424 301.851C297.436 301.83 297.514 301.705 297.498 301.532C297.486 301.415 297.432 301.29 297.322 301.196C297.225 301.114 297.123 301.089 297.066 301.081C296.963 301.066 296.88 301.086 296.858 301.092L296.857 301.092C272.744 307.093 247.188 306.606 222.768 304.672C216.633 304.187 210.502 303.38 204.412 302.139Z" stroke="#3B1404" stroke-opacity="0.35" stroke-linecap="round" stroke-linejoin="round"/>
<path d="M154.048 142.972C153.891 142.159 154.424 141.372 155.237 141.215C156.051 141.059 156.837 141.591 156.994 142.404L154.048 142.972ZM162.328 155.76C159.521 153.772 157.678 151.985 156.419 149.921C155.163 147.863 154.564 145.648 154.048 142.972L156.994 142.404C157.491 144.986 158.011 146.77 158.98 148.359C159.945 149.941 161.432 151.449 164.062 153.312L162.328 155.76Z" fill="#222222"/>
<path d="M161.579 139.613C161.423 138.8 161.955 138.013 162.768 137.856C163.582 137.7 164.368 138.232 164.525 139.046L161.579 139.613ZM169.859 152.401C167.053 150.413 165.209 148.626 163.95 146.562C162.694 144.504 162.095 142.29 161.579 139.613L164.525 139.046C165.022 141.627 165.542 143.411 166.511 145C167.477 146.582 168.963 148.09 171.593 149.953L169.859 152.401Z" fill="#222222"/>
<path d="M169.284 137.239C169.127 136.426 169.66 135.639 170.473 135.482C171.287 135.326 172.073 135.858 172.23 136.672L169.284 137.239ZM177.564 150.027C174.758 148.039 172.914 146.252 171.655 144.188C170.399 142.13 169.8 139.916 169.284 137.239L172.23 136.672C172.727 139.253 173.247 141.037 174.216 142.626C175.181 144.208 176.668 145.716 179.298 147.579L177.564 150.027Z" fill="#222222"/>
<path d="M159 230.617L172.632 219.933L156.563 213.469L159 230.617ZM163.434 216.563C163.27 216.728 163.11 216.892 162.954 217.055L165.121 219.129C165.265 218.979 165.413 218.827 165.566 218.672L163.434 216.563Z" fill="#222222"/>
<path d="M167 232.617L180.632 221.933L164.563 215.469L167 232.617ZM171.434 218.563C171.27 218.728 171.11 218.892 170.954 219.055L173.121 221.129C173.265 220.979 173.413 220.827 173.566 220.672L171.434 218.563Z" fill="#222222"/>
<path d="M175 233.617L188.632 222.933L172.563 216.469L175 233.617ZM179.434 219.563C179.27 219.728 179.11 219.892 178.954 220.055L181.121 222.129C181.265 221.979 181.413 221.827 181.566 221.672L179.434 219.563Z" fill="#222222"/>
<g filter="url(#filter24_f_30_325)">
<path d="M227.687 217.991C227.687 220.476 221.53 220.491 223.187 220.491C224.844 220.491 233.581 222.42 233.187 221.491C232.793 220.562 222.536 197.467 223.687 191.991C222.03 191.991 227.687 215.505 227.687 217.991Z" fill="#8E4B18"/>
<path d="M227.687 217.991C227.687 220.476 221.53 220.491 223.187 220.491C224.844 220.491 233.581 222.42 233.187 221.491C232.793 220.562 222.536 197.467 223.687 191.991C222.03 191.991 227.687 215.505 227.687 217.991Z" fill="#FCEFA8" fill-opacity="0.2"/>
</g>
<path d="M227 188.913C227 212.385 227 225.617 187 225.617C146.969 225.617 147 212.385 147 188.913C147 165.441 164.618 140.617 187 140.617C209.382 140.617 227 165.441 227 188.913Z" fill="#222222"/>
<path d="M154.568 218.478C140.062 216.866 133.521 211.501 126 202.498C135.956 206.247 147 211.617 149 183.117L154.568 218.478Z" fill="#222222"/>
<path d="M224.5 174.617C229.5 186.617 228.631 202.79 230 222.117C221.492 220.324 204 226.117 198 225.117L224.5 174.617Z" fill="#222222"/>
<g filter="url(#filter25_dd_30_325)">
<mask id="mask1_30_325" style="mask-type:alpha" maskUnits="userSpaceOnUse" x="151" y="144" width="76" height="82">
<path d="M227 190.64C227 213.008 227 225.617 189 225.617C150.97 225.617 151 213.008 151 190.64C151 168.273 167.737 144.617 189 144.617C210.263 144.617 227 168.273 227 190.64Z" fill="white"/>
</mask>
<g mask="url(#mask1_30_325)">
<g filter="url(#filter26_i_30_325)">
<path d="M227 190.64C227 213.008 227 225.617 189 225.617C150.97 225.617 151 213.008 151 190.64C151 168.273 167.737 144.617 189 144.617C210.263 144.617 227 168.273 227 190.64Z" fill="url(#paint3_radial_30_325)"/>
</g>
<path d="M222.926 184.632C224.307 204.379 211.381 221.026 194.478 222.208C177.575 223.39 162.458 208.703 161.077 188.957C159.697 169.21 172.623 152.563 189.525 151.381C206.428 150.199 221.545 164.885 222.926 184.632Z" fill="#441603"/>
<path d="M222.926 184.632C224.307 204.379 211.381 221.026 194.478 222.208C177.575 223.39 162.458 208.703 161.077 188.957C159.697 169.21 172.623 152.563 189.525 151.381C206.428 150.199 221.545 164.885 222.926 184.632Z" fill="url(#paint4_radial_30_325)" fill-opacity="0.2"/>
<path d="M222.926 184.632C224.307 204.379 211.381 221.026 194.478 222.208C177.575 223.39 162.458 208.703 161.077 188.957C159.697 169.21 172.623 152.563 189.525 151.381C206.428 150.199 221.545 164.885 222.926 184.632Z" stroke="#290E03" stroke-width="3"/>
<g filter="url(#filter27_f_30_325)">
<ellipse cx="192.283" cy="186.978" rx="19.2307" ry="22.8977" transform="rotate(-4 192.283 186.978)" fill="black"/>
</g>
<g style="mix-blend-mode:soft-light" filter="url(#filter28_f_30_325)">
<ellipse cx="207.273" cy="168.615" rx="15" ry="17" transform="rotate(-4 207.273 168.615)" fill="white" fill-opacity="0.8"/>
</g>
<ellipse cx="207.273" cy="168.615" rx="15" ry="17" transform="rotate(-4 207.273 168.615)" fill="white" fill-opacity="0.5"/>
</g>
</g>
<path d="M337 230.744L323.368 220.06L339.437 213.596L337 230.744ZM332.566 216.689C332.73 216.855 332.89 217.019 333.046 217.182L330.879 219.256C330.735 219.106 330.587 218.954 330.434 218.799L332.566 216.689Z" fill="#222222"/>
<path d="M329 232.744L315.368 222.06L331.437 215.596L329 232.744ZM324.566 218.689C324.73 218.855 324.89 219.019 325.046 219.182L322.879 221.256C322.735 221.106 322.587 220.954 322.434 220.799L324.566 218.689Z" fill="#222222"/>
<path d="M321 233.744L307.368 223.06L323.437 216.596L321 233.744ZM316.566 219.689C316.73 219.855 316.89 220.019 317.046 220.182L314.879 222.256C314.735 222.106 314.587 221.954 314.434 221.799L316.566 219.689Z" fill="#222222"/>
<path d="M341.904 142.972C342.06 142.159 341.528 141.372 340.715 141.215C339.901 141.059 339.115 141.591 338.958 142.404L341.904 142.972ZM333.624 155.76C336.43 153.772 338.274 151.985 339.533 149.921C340.789 147.863 341.388 145.648 341.904 142.972L338.958 142.404C338.461 144.986 337.941 146.77 336.972 148.359C336.006 149.941 334.519 151.449 331.89 153.312L333.624 155.76Z" fill="#222222"/>
<path d="M334.372 139.613C334.529 138.8 333.997 138.013 333.183 137.856C332.37 137.7 331.583 138.232 331.427 139.046L334.372 139.613ZM326.093 152.401C328.899 150.413 330.743 148.626 332.002 146.562C333.257 144.504 333.857 142.29 334.372 139.613L331.427 139.046C330.929 141.627 330.41 143.411 329.441 145C328.475 146.582 326.988 148.09 324.359 149.953L326.093 152.401Z" fill="#222222"/>
<path d="M326.668 137.239C326.824 136.426 326.292 135.639 325.478 135.482C324.665 135.326 323.878 135.858 323.722 136.672L326.668 137.239ZM318.388 150.027C321.194 148.039 323.038 146.252 324.297 144.188C325.552 142.13 326.152 139.916 326.668 137.239L323.722 136.672C323.224 139.253 322.705 141.037 321.736 142.626C320.77 144.208 319.283 145.716 316.654 147.579L318.388 150.027Z" fill="#222222"/>
<g filter="url(#filter29_f_30_325)">
<path d="M268.5 217.991C268.5 220.476 274.657 220.491 273 220.491C271.343 220.491 262.606 222.42 263 221.491C263.394 220.562 273.651 197.467 272.5 191.991C274.157 191.991 268.5 215.505 268.5 217.991Z" fill="#8E4B18"/>
<path d="M268.5 217.991C268.5 220.476 274.657 220.491 273 220.491C271.343 220.491 262.606 222.42 263 221.491C263.394 220.562 273.651 197.467 272.5 191.991C274.157 191.991 268.5 215.505 268.5 217.991Z" fill="#FCEFA8" fill-opacity="0.2"/>
</g>
<path d="M269 189.04C269 212.512 269 225.744 309 225.744C349.031 225.744 349 212.512 349 189.04C349 165.568 331.382 140.744 309 140.744C286.618 140.744 269 165.568 269 189.04Z" fill="#222222"/>
<path d="M341.432 218.605C355.938 216.993 362.479 211.628 370 202.624C360.044 206.374 349 211.744 347 183.244L341.432 218.605Z" fill="#222222"/>
<path d="M271.5 174.744C266.5 186.744 267.369 202.917 266 222.244C274.508 220.451 292 226.244 298 225.244L271.5 174.744Z" fill="#222222"/>
<g filter="url(#filter30_dd_30_325)">
<mask id="mask2_30_325" style="mask-type:alpha" maskUnits="userSpaceOnUse" x="269" y="144" width="76" height="82">
<path d="M269 190.767C269 213.135 269 225.744 307 225.744C345.03 225.744 345 213.135 345 190.767C345 168.4 328.263 144.744 307 144.744C285.737 144.744 269 168.4 269 190.767Z" fill="white"/>
</mask>
<g mask="url(#mask2_30_325)">
<g filter="url(#filter31_i_30_325)">
<path d="M269 190.767C269 213.135 269 225.744 307 225.744C345.03 225.744 345 213.135 345 190.767C345 168.4 328.263 144.744 307 144.744C285.737 144.744 269 168.4 269 190.767Z" fill="url(#paint5_radial_30_325)"/>
</g>
<path d="M334.923 189.084C333.542 208.83 318.424 223.517 301.522 222.335C284.619 221.153 271.693 204.505 273.074 184.759C274.454 165.012 289.572 150.326 306.474 151.508C323.377 152.69 336.303 169.337 334.923 189.084Z" fill="#441603"/>
<path d="M334.923 189.084C333.542 208.83 318.424 223.517 301.522 222.335C284.619 221.153 271.693 204.505 273.074 184.759C274.454 165.012 289.572 150.326 306.474 151.508C323.377 152.69 336.303 169.337 334.923 189.084Z" fill="url(#paint6_radial_30_325)" fill-opacity="0.2"/>
<path d="M334.923 189.084C333.542 208.83 318.424 223.517 301.522 222.335C284.619 221.153 271.693 204.505 273.074 184.759C274.454 165.012 289.572 150.326 306.474 151.508C323.377 152.69 336.303 169.337 334.923 189.084Z" stroke="#290E03" stroke-width="3"/>
<g filter="url(#filter32_f_30_325)">
<ellipse cx="304.251" cy="187.142" rx="19.2307" ry="22.8977" transform="rotate(4 304.251 187.142)" fill="black"/>
</g>
<g style="mix-blend-mode:soft-light" filter="url(#filter33_f_30_325)">
<ellipse cx="321.641" cy="171.184" rx="15" ry="17" transform="rotate(4 321.641 171.184)" fill="white" fill-opacity="0.8"/>
</g>
<ellipse cx="321.641" cy="171.184" rx="15" ry="17" transform="rotate(4 321.641 171.184)" fill="white" fill-opacity="0.5"/>
</g>
</g>
<path fill-rule="evenodd" clip-rule="evenodd" d="M229.209 122.248C233.005 125.149 231.608 133.699 227.499 133.511C227.499 133.511 211.037 132.018 202.992 130.887C189.543 128.996 176.095 127.106 162.575 128.772C155.742 129.614 148.551 131.313 142.483 136.495C141.937 136.961 140.999 138.19 139.913 139.614C137.126 143.265 133.368 148.191 132.773 144.759C132.659 144.099 132.738 143.44 132.95 142.844C143.671 112.715 185.962 115.426 204.199 117.174C205.736 117.321 207.436 117.408 209.223 117.498C212.029 117.641 207.654 117.335 211.999 117.699C221.499 118.86 220.999 124.511 220.999 124.511C220.999 124.511 221.999 124.011 219.499 118.45C223.42 122.968 222.999 125.511 223.824 130.511C224.499 125.511 224.121 124.049 221.499 118.86C225.95 123.373 226.472 125.283 225.499 132.011C226.673 126.82 227.01 125.288 223.824 119.511C228.653 123.838 229.438 125.512 226.999 132.011C229.464 126.06 229.581 124.484 226.499 120.588C230.55 124.387 231.041 127.123 227.499 133.511C230.787 128.735 231.482 126.221 229.209 122.248Z" fill="url(#paint7_linear_30_325)"/>
<path fill-rule="evenodd" clip-rule="evenodd" d="M266.79 122.248C262.994 125.149 264.391 133.699 268.5 133.511C268.5 133.511 284.962 132.018 293.007 130.887C306.456 128.996 319.904 127.106 333.424 128.772C340.257 129.614 347.448 131.313 353.516 136.495C354.062 136.961 355 138.19 356.086 139.614C358.872 143.265 362.631 148.191 363.225 144.759C363.34 144.099 363.261 143.44 363.049 142.844C352.328 112.715 310.037 115.426 291.8 117.174C290.262 117.321 288.563 117.408 286.776 117.498C283.97 117.641 288.344 117.335 284 117.699C274.5 118.86 275 124.511 275 124.511C275 124.511 274 124.011 276.5 118.45C272.578 122.968 273 125.511 272.174 130.511C271.5 125.511 271.878 124.049 274.5 118.86C270.049 123.373 269.527 125.283 270.5 132.011C269.326 126.82 268.988 125.288 272.174 119.511C267.346 123.838 266.56 125.512 269 132.011C266.535 126.06 266.418 124.484 269.5 120.588C265.449 124.387 264.958 127.123 268.5 133.511C265.211 128.735 264.516 126.221 266.79 122.248Z" fill="url(#paint8_linear_30_325)"/>
<g filter="url(#filter34_d_30_325)">
<path d="M272.186 251.5C287.463 267 261.842 279.5 249.083 279.5C236.323 279.5 210.049 271 225.979 251.5C241.909 232 236.323 202 249.083 202C261.842 202 256.909 236 272.186 251.5Z" fill="url(#paint9_linear_30_325)"/>
</g>
<g opacity="0.5" filter="url(#filter35_f_30_325)">
<path d="M259.909 269.5C259.909 275.023 254.984 279.5 248.909 279.5C242.834 279.5 237.909 275.023 237.909 269.5C237.909 263.977 242.834 252 248.909 252C254.984 252 259.909 263.977 259.909 269.5Z" fill="#8C4817" fill-opacity="0.4"/>
<path d="M259.909 269.5C259.909 275.023 254.984 279.5 248.909 279.5C242.834 279.5 237.909 275.023 237.909 269.5C237.909 263.977 242.834 252 248.909 252C254.984 252 259.909 263.977 259.909 269.5Z" fill="url(#paint10_linear_30_325)" fill-opacity="0.2"/>
<path d="M259.909 269.5C259.909 275.023 254.984 279.5 248.909 279.5C242.834 279.5 237.909 275.023 237.909 269.5C237.909 263.977 242.834 252 248.909 252C254.984 252 259.909 263.977 259.909 269.5Z" fill="#863202" fill-opacity="0.3"/>
</g>
<g filter="url(#filter36_f_30_325)">
<ellipse cx="225.361" cy="262.117" rx="0.5" ry="1" transform="rotate(-23.7689 225.361 262.117)" fill="#6F3511"/>
</g>
<g filter="url(#filter37_ii_30_325)">
<path d="M216.788 270.278C216.441 273.684 222.643 271.647 224.105 270.138L223.463 269.706C223.463 269.706 218.569 271.985 218.807 269.717C219.236 265.611 225.383 262.924 225.383 262.924C225.937 261.732 224.922 261.809 224.604 261.904C222.592 262.504 216.705 266.809 216.788 270.278Z" fill="#FBFBFB"/>
</g>
<g filter="url(#filter38_f_30_325)">
<ellipse cx="226.861" cy="264.117" rx="0.5" ry="1" transform="rotate(-23.7689 226.861 264.117)" fill="#6F3511"/>
</g>
<g filter="url(#filter39_ii_30_325)">
<path d="M218.351 272.046C218.005 275.452 224.207 273.415 225.668 271.906L225.026 271.474C225.026 271.474 220.133 273.753 220.37 271.485C220.799 267.379 226.947 264.692 226.947 264.692C227.5 263.5 226.486 263.577 226.167 263.672C224.155 264.272 218.268 268.577 218.351 272.046Z" fill="#FBFBFB"/>
</g>
<g filter="url(#filter40_i_30_325)">
<path d="M221.635 111.12C208.119 115.127 231 50.4998 231 50.4998C227.531 50.78 209.47 76.1972 206.102 77.8941C206.102 77.8941 199.955 118.376 216.624 119.7C226.496 120.484 239.872 116.983 238.671 107.082C237.848 100.302 226.144 94.9687 226.144 94.9687C226.144 94.9687 231.864 100.916 230.654 105.063C229.461 109.154 225.696 109.916 221.635 111.12Z" fill="black"/>
<path d="M221.635 111.12C208.119 115.127 231 50.4998 231 50.4998C227.531 50.78 209.47 76.1972 206.102 77.8941C206.102 77.8941 199.955 118.376 216.624 119.7C226.496 120.484 239.872 116.983 238.671 107.082C237.848 100.302 226.144 94.9687 226.144 94.9687C226.144 94.9687 231.864 100.916 230.654 105.063C229.461 109.154 225.696 109.916 221.635 111.12Z" fill="url(#paint11_linear_30_325)"/>
<path fill-rule="evenodd" clip-rule="evenodd" d="M267.5 2.49976C239.5 11.9998 258.571 44.0304 273 50.9998C273 50.9998 265.013 54.8461 255 59.4684C251.496 61.0859 247.744 62.7984 244 64.4743C231.983 69.8531 234.418 50.2236 231 50.4998C227.531 50.78 209.47 76.1972 206.102 77.8941C203.263 79.3243 200.651 81.402 198.586 84.3704C195.681 88.5459 195.602 93.1345 195.521 97.8354C195.468 100.898 196.357 112.588 195.521 115.662C191.753 129.513 156.5 118 156.5 118C190.5 118 203.343 80.2989 185.5 75.1314C183.453 74.5385 178.375 99.2886 174.292 105.026C168.986 112.481 161.854 120.468 159.5 115.662C141 77.8941 138.96 133.832 145.474 183.293C145.758 185.456 146.377 188.334 147.072 191.573C149.598 203.332 153.145 219.848 145.474 224.175L120.421 238.307C110.637 243.826 126.433 259 126.433 259C126.433 259 111.347 256.059 108.395 248.401C105.612 241.181 106.849 233.267 113.406 229.222L135.315 219.512C136.581 219.578 137.661 219.167 138.459 218.118C141.887 213.615 129.324 162.929 126.433 158.058C124.954 155.565 124.828 160.564 124.664 167.114C124.444 175.909 124.154 187.5 120.421 187.5C111.769 187.5 113.406 201.5 113.406 201.5C98.8749 119.777 146.47 27.6586 267.5 2.49976Z" fill="black"/>
<path fill-rule="evenodd" clip-rule="evenodd" d="M267.5 2.49976C239.5 11.9998 258.571 44.0304 273 50.9998C273 50.9998 265.013 54.8461 255 59.4684C251.496 61.0859 247.744 62.7984 244 64.4743C231.983 69.8531 234.418 50.2236 231 50.4998C227.531 50.78 209.47 76.1972 206.102 77.8941C203.263 79.3243 200.651 81.402 198.586 84.3704C195.681 88.5459 195.602 93.1345 195.521 97.8354C195.468 100.898 196.357 112.588 195.521 115.662C191.753 129.513 156.5 118 156.5 118C190.5 118 203.343 80.2989 185.5 75.1314C183.453 74.5385 178.375 99.2886 174.292 105.026C168.986 112.481 161.854 120.468 159.5 115.662C141 77.8941 138.96 133.832 145.474 183.293C145.758 185.456 146.377 188.334 147.072 191.573C149.598 203.332 153.145 219.848 145.474 224.175L120.421 238.307C110.637 243.826 126.433 259 126.433 259C126.433 259 111.347 256.059 108.395 248.401C105.612 241.181 106.849 233.267 113.406 229.222L135.315 219.512C136.581 219.578 137.661 219.167 138.459 218.118C141.887 213.615 129.324 162.929 126.433 158.058C124.954 155.565 124.828 160.564 124.664 167.114C124.444 175.909 124.154 187.5 120.421 187.5C111.769 187.5 113.406 201.5 113.406 201.5C98.8749 119.777 146.47 27.6586 267.5 2.49976Z" fill="url(#paint12_linear_30_325)"/>
<path d="M244 64.4743C244 64.4743 256.554 102.419 267.5 111.12C272.863 115.383 300 111.12 300 111.12C300 111.12 273.179 108.749 270 103C263.761 91.7164 254.799 72.3601 255 59.4684C251.496 61.0859 247.744 62.7984 244 64.4743Z" fill="black"/>
<path d="M244 64.4743C244 64.4743 256.554 102.419 267.5 111.12C272.863 115.383 300 111.12 300 111.12C300 111.12 273.179 108.749 270 103C263.761 91.7164 254.799 72.3601 255 59.4684C251.496 61.0859 247.744 62.7984 244 64.4743Z" fill="url(#paint13_linear_30_325)"/>
</g>
<g filter="url(#filter41_i_30_325)">
<path d="M380.471 230.736C382.339 218.839 382.792 209.5 383.833 193.892C381.336 202.321 376.582 208.902 374.676 216.1C374.969 222.235 378.54 231.147 380.471 230.736Z" fill="black"/>
<path d="M380.471 230.736C382.339 218.839 382.792 209.5 383.833 193.892C381.336 202.321 376.582 208.902 374.676 216.1C374.969 222.235 378.54 231.147 380.471 230.736Z" fill="url(#paint14_linear_30_325)"/>
<path d="M288.777 119.7C288.777 124.016 279.507 109.488 275.749 110.615C279.885 109.403 290.924 123.582 292.284 119.7C295.291 111.12 268.734 91.9412 271.24 84.3703C272.471 80.649 290.473 62.9821 293.5 62.9998C290.753 62.4467 273.279 78.5462 270.577 77.8941C270.577 77.8941 260.717 84.7415 268.233 91.9409C275.749 99.1404 288.777 117.176 288.777 119.7Z" fill="black"/>
<path d="M288.777 119.7C288.777 124.016 279.507 109.488 275.749 110.615C279.885 109.403 290.924 123.582 292.284 119.7C295.291 111.12 268.734 91.9412 271.24 84.3703C272.471 80.649 290.473 62.9821 293.5 62.9998C290.753 62.4467 273.279 78.5462 270.577 77.8941C270.577 77.8941 260.717 84.7415 268.233 91.9409C275.749 99.1404 288.777 117.176 288.777 119.7Z" fill="url(#paint15_linear_30_325)"/>
<path d="M269 0.5C247.23 6.44418 212.727 69.9936 230.654 76.2945C247 108.012 247.571 126.827 277.754 119.7C247.956 120.214 251.803 101.291 245.686 82.3511C227 24.4998 253.43 73.7563 270.577 77.8941C273.279 78.5462 290.753 62.4467 293.5 62.9998C296.631 63.0182 280 88.9998 280 88.9998C284.097 89.5936 292.796 81.652 296.293 81.3422C318.289 79.3932 289.023 117.479 300.802 128.785C306.722 134.467 320.344 136.356 320.344 136.356C320.344 136.356 312.242 129.945 309.32 124.243C302.578 111.083 311.541 89.8712 322.5 80C330.157 73.1031 327.697 76.2904 329 87C329.768 93.3151 335.1 90.5685 335.817 98.4998C336.686 108.113 338.105 117.686 341.5 124.243C347.826 136.462 369.803 136.707 369.949 150.488C370.04 159.024 357.788 174.793 354.312 174.801C356.325 175.211 365.492 176.658 369.949 170.171C374.18 164.012 375.962 150.488 375.962 150.488C375.962 150.488 382.293 174.197 378.968 188.845C376.975 197.625 373.924 201.976 369.949 210.043C361.782 226.618 364.766 237.008 394 259C394 259 375.441 239.191 373.957 224.175C373.676 221.329 373.994 218.675 374.676 216.1C376.582 208.902 381.336 202.321 383.833 193.892C384.31 192.283 384.704 190.607 384.981 188.845C397.372 109.965 391.796 0.0471021 269 0.5Z" fill="black"/>
<path d="M269 0.5C247.23 6.44418 212.727 69.9936 230.654 76.2945C247 108.012 247.571 126.827 277.754 119.7C247.956 120.214 251.803 101.291 245.686 82.3511C227 24.4998 253.43 73.7563 270.577 77.8941C273.279 78.5462 290.753 62.4467 293.5 62.9998C296.631 63.0182 280 88.9998 280 88.9998C284.097 89.5936 292.796 81.652 296.293 81.3422C318.289 79.3932 289.023 117.479 300.802 128.785C306.722 134.467 320.344 136.356 320.344 136.356C320.344 136.356 312.242 129.945 309.32 124.243C302.578 111.083 311.541 89.8712 322.5 80C330.157 73.1031 327.697 76.2904 329 87C329.768 93.3151 335.1 90.5685 335.817 98.4998C336.686 108.113 338.105 117.686 341.5 124.243C347.826 136.462 369.803 136.707 369.949 150.488C370.04 159.024 357.788 174.793 354.312 174.801C356.325 175.211 365.492 176.658 369.949 170.171C374.18 164.012 375.962 150.488 375.962 150.488C375.962 150.488 382.293 174.197 378.968 188.845C376.975 197.625 373.924 201.976 369.949 210.043C361.782 226.618 364.766 237.008 394 259C394 259 375.441 239.191 373.957 224.175C373.676 221.329 373.994 218.675 374.676 216.1C376.582 208.902 381.336 202.321 383.833 193.892C384.31 192.283 384.704 190.607 384.981 188.845C397.372 109.965 391.796 0.0471021 269 0.5Z" fill="url(#paint16_linear_30_325)"/>
<path d="M329 87C333.718 96.6169 317.862 113.004 312.5 110.615C317.917 112.008 336.658 101.425 335.817 98.4998C335.1 90.5685 329.768 93.3151 329 87Z" fill="black"/>
<path d="M329 87C333.718 96.6169 317.862 113.004 312.5 110.615C317.917 112.008 336.658 101.425 335.817 98.4998C335.1 90.5685 329.768 93.3151 329 87Z" fill="url(#paint17_linear_30_325)"/>
</g>
<defs>
<filter id="filter0_ii_30_325" x="0" y="0" width="505" height="448" filterUnits="userSpaceOnUse" color-interpolation-filters="sRGB">
<feFlood flood-opacity="0" result="BackgroundImageFix"/>
<feBlend mode="normal" in="SourceGraphic" in2="BackgroundImageFix" result="shape"/>
<feColorMatrix in="SourceAlpha" type="matrix" values="0 0 0 0 0 0 0 0 0 0 0 0 0 0 0 0 0 0 127 0" result="hardAlpha"/>
<feOffset dx="-5"/>
<feComposite in2="hardAlpha" operator="arithmetic" k2="-1" k3="1"/>
<feColorMatrix type="matrix" values="0 0 0 0 0 0 0 0 0 0 0 0 0 0 0 0 0 0 0.3 0"/>
<feBlend mode="normal" in2="shape" result="effect1_innerShadow_30_325"/>
<feColorMatrix in="SourceAlpha" type="matrix" values="0 0 0 0 0 0 0 0 0 0 0 0 0 0 0 0 0 0 127 0" result="hardAlpha"/>
<feOffset dx="5"/>
<feComposite in2="hardAlpha" operator="arithmetic" k2="-1" k3="1"/>
<feColorMatrix type="matrix" values="0 0 0 0 0.52549 0 0 0 0 0.196078 0 0 0 0 0.00784314 0 0 0 0.5 0"/>
<feBlend mode="normal" in2="effect1_innerShadow_30_325" result="effect2_innerShadow_30_325"/>
</filter>
<filter id="filter1_i_30_325" x="87.386" y="188.906" width="45.2754" height="84.9192" filterUnits="userSpaceOnUse" color-interpolation-filters="sRGB">
<feFlood flood-opacity="0" result="BackgroundImageFix"/>
<feBlend mode="normal" in="SourceGraphic" in2="BackgroundImageFix" result="shape"/>
<feColorMatrix in="SourceAlpha" type="matrix" values="0 0 0 0 0 0 0 0 0 0 0 0 0 0 0 0 0 0 127 0" result="hardAlpha"/>
<feOffset dx="-12"/>
<feGaussianBlur stdDeviation="2"/>
<feComposite in2="hardAlpha" operator="arithmetic" k2="-1" k3="1"/>
<feColorMatrix type="matrix" values="0 0 0 0 0.431373 0 0 0 0 0.203922 0 0 0 0 0.0627451 0 0 0 0.35 0"/>
<feBlend mode="normal" in2="shape" result="effect1_innerShadow_30_325"/>
</filter>
<filter id="filter2_i_30_325" x="95.5071" y="207.477" width="32.8047" height="50.5254" filterUnits="userSpaceOnUse" color-interpolation-filters="sRGB">
<feFlood flood-opacity="0" result="BackgroundImageFix"/>
<feBlend mode="normal" in="SourceGraphic" in2="BackgroundImageFix" result="shape"/>
<feColorMatrix in="SourceAlpha" type="matrix" values="0 0 0 0 0 0 0 0 0 0 0 0 0 0 0 0 0 0 127 0" result="hardAlpha"/>
<feOffset dx="-12"/>
<feGaussianBlur stdDeviation="2"/>
<feComposite in2="hardAlpha" operator="arithmetic" k2="-1" k3="1"/>
<feColorMatrix type="matrix" values="0 0 0 0 0.431373 0 0 0 0 0.203922 0 0 0 0 0.0627451 0 0 0 0.35 0"/>
<feBlend mode="normal" in2="shape" result="effect1_innerShadow_30_325"/>
</filter>
<filter id="filter3_f_30_325" x="96.2036" y="202.156" width="3.22607" height="3.70215" filterUnits="userSpaceOnUse" color-interpolation-filters="sRGB">
<feFlood flood-opacity="0" result="BackgroundImageFix"/>
<feBlend mode="normal" in="SourceGraphic" in2="BackgroundImageFix" result="shape"/>
<feGaussianBlur stdDeviation="0.5" result="effect1_foregroundBlur_30_325"/>
</filter>
<filter id="filter4_ii_30_325" x="90.2715" y="196.571" width="8.32129" height="10.429" filterUnits="userSpaceOnUse" color-interpolation-filters="sRGB">
<feFlood flood-opacity="0" result="BackgroundImageFix"/>
<feBlend mode="normal" in="SourceGraphic" in2="BackgroundImageFix" result="shape"/>
<feColorMatrix in="SourceAlpha" type="matrix" values="0 0 0 0 0 0 0 0 0 0 0 0 0 0 0 0 0 0 127 0" result="hardAlpha"/>
<feOffset dx="0.5" dy="-0.5"/>
<feGaussianBlur stdDeviation="1.5"/>
<feComposite in2="hardAlpha" operator="arithmetic" k2="-1" k3="1"/>
<feColorMatrix type="matrix" values="0 0 0 0 0.435294 0 0 0 0 0.207843 0 0 0 0 0.0666667 0 0 0 0.9 0"/>
<feBlend mode="normal" in2="shape" result="effect1_innerShadow_30_325"/>
<feColorMatrix in="SourceAlpha" type="matrix" values="0 0 0 0 0 0 0 0 0 0 0 0 0 0 0 0 0 0 127 0" result="hardAlpha"/>
<feOffset dx="-0.5" dy="0.5"/>
<feGaussianBlur stdDeviation="0.5"/>
<feComposite in2="hardAlpha" operator="arithmetic" k2="-1" k3="1"/>
<feColorMatrix type="matrix" values="0 0 0 0 0.965381 0 0 0 0 0.835562 0 0 0 0 0.497586 0 0 0 0.5 0"/>
<feBlend mode="normal" in2="effect1_innerShadow_30_325" result="effect2_innerShadow_30_325"/>
</filter>
<filter id="filter5_dii_30_325" x="101" y="251" width="9" height="9" filterUnits="userSpaceOnUse" color-interpolation-filters="sRGB">
<feFlood flood-opacity="0" result="BackgroundImageFix"/>
<feColorMatrix in="SourceAlpha" type="matrix" values="0 0 0 0 0 0 0 0 0 0 0 0 0 0 0 0 0 0 127 0" result="hardAlpha"/>
<feOffset dx="1" dy="1"/>
<feGaussianBlur stdDeviation="1"/>
<feComposite in2="hardAlpha" operator="out"/>
<feColorMatrix type="matrix" values="0 0 0 0 0.435294 0 0 0 0 0.207843 0 0 0 0 0.0666667 0 0 0 1 0"/>
<feBlend mode="normal" in2="BackgroundImageFix" result="effect1_dropShadow_30_325"/>
<feBlend mode="normal" in="SourceGraphic" in2="effect1_dropShadow_30_325" result="shape"/>
<feColorMatrix in="SourceAlpha" type="matrix" values="0 0 0 0 0 0 0 0 0 0 0 0 0 0 0 0 0 0 127 0" result="hardAlpha"/>
<feOffset dx="-0.5" dy="-0.277778"/>
<feComposite in2="hardAlpha" operator="arithmetic" k2="-1" k3="1"/>
<feColorMatrix type="matrix" values="0 0 0 0 0.694118 0 0 0 0 0.501961 0 0 0 0 0.00392157 0 0 0 1 0"/>
<feBlend mode="normal" in2="shape" result="effect2_innerShadow_30_325"/>
<feColorMatrix in="SourceAlpha" type="matrix" values="0 0 0 0 0 0 0 0 0 0 0 0 0 0 0 0 0 0 127 0" result="hardAlpha"/>
<feOffset dx="0.5" dy="0.5"/>
<feGaussianBlur stdDeviation="1"/>
<feComposite in2="hardAlpha" operator="arithmetic" k2="-1" k3="1"/>
<feColorMatrix type="matrix" values="0 0 0 0 0.965381 0 0 0 0 0.835562 0 0 0 0 0.497586 0 0 0 0.5 0"/>
<feBlend mode="normal" in2="effect2_innerShadow_30_325" result="effect3_innerShadow_30_325"/>
</filter>
<filter id="filter6_dii_30_325" x="103.7" y="256" width="13" height="13" filterUnits="userSpaceOnUse" color-interpolation-filters="sRGB">
<feFlood flood-opacity="0" result="BackgroundImageFix"/>
<feColorMatrix in="SourceAlpha" type="matrix" values="0 0 0 0 0 0 0 0 0 0 0 0 0 0 0 0 0 0 127 0" result="hardAlpha"/>
<feOffset dx="-1" dy="1"/>
<feGaussianBlur stdDeviation="1.5"/>
<feComposite in2="hardAlpha" operator="out"/>
<feColorMatrix type="matrix" values="0 0 0 0 0.435294 0 0 0 0 0.207843 0 0 0 0 0.0666667 0 0 0 0.9 0"/>
<feBlend mode="normal" in2="BackgroundImageFix" result="effect1_dropShadow_30_325"/>
<feBlend mode="normal" in="SourceGraphic" in2="effect1_dropShadow_30_325" result="shape"/>
<feColorMatrix in="SourceAlpha" type="matrix" values="0 0 0 0 0 0 0 0 0 0 0 0 0 0 0 0 0 0 127 0" result="hardAlpha"/>
<feOffset dx="-0.5" dy="-0.5"/>
<feComposite in2="hardAlpha" operator="arithmetic" k2="-1" k3="1"/>
<feColorMatrix type="matrix" values="0 0 0 0 0.819608 0 0 0 0 0.592157 0 0 0 0 0 0 0 0 1 0"/>
<feBlend mode="normal" in2="shape" result="effect2_innerShadow_30_325"/>
<feColorMatrix in="SourceAlpha" type="matrix" values="0 0 0 0 0 0 0 0 0 0 0 0 0 0 0 0 0 0 127 0" result="hardAlpha"/>
<feOffset dx="1" dy="1"/>
<feGaussianBlur stdDeviation="1"/>
<feComposite in2="hardAlpha" operator="arithmetic" k2="-1" k3="1"/>
<feColorMatrix type="matrix" values="0 0 0 0 0.924105 0 0 0 0 0.924105 0 0 0 0 0.924105 0 0 0 0.9 0"/>
<feBlend mode="normal" in2="effect2_innerShadow_30_325" result="effect3_innerShadow_30_325"/>
</filter>
<filter id="filter7_dii_30_325" x="114.7" y="260" width="15" height="15" filterUnits="userSpaceOnUse" color-interpolation-filters="sRGB">
<feFlood flood-opacity="0" result="BackgroundImageFix"/>
<feColorMatrix in="SourceAlpha" type="matrix" values="0 0 0 0 0 0 0 0 0 0 0 0 0 0 0 0 0 0 127 0" result="hardAlpha"/>
<feOffset dx="1" dy="1"/>
<feGaussianBlur stdDeviation="1.5"/>
<feComposite in2="hardAlpha" operator="out"/>
<feColorMatrix type="matrix" values="0 0 0 0 0.435294 0 0 0 0 0.207843 0 0 0 0 0.0666667 0 0 0 1 0"/>
<feBlend mode="normal" in2="BackgroundImageFix" result="effect1_dropShadow_30_325"/>
<feBlend mode="normal" in="SourceGraphic" in2="effect1_dropShadow_30_325" result="shape"/>
<feColorMatrix in="SourceAlpha" type="matrix" values="0 0 0 0 0 0 0 0 0 0 0 0 0 0 0 0 0 0 127 0" result="hardAlpha"/>
<feOffset dx="-0.5" dy="-0.5"/>
<feComposite in2="hardAlpha" operator="arithmetic" k2="-1" k3="1"/>
<feColorMatrix type="matrix" values="0 0 0 0 0.694118 0 0 0 0 0.501961 0 0 0 0 0.00392157 0 0 0 1 0"/>
<feBlend mode="normal" in2="shape" result="effect2_innerShadow_30_325"/>
<feColorMatrix in="SourceAlpha" type="matrix" values="0 0 0 0 0 0 0 0 0 0 0 0 0 0 0 0 0 0 127 0" result="hardAlpha"/>
<feOffset dx="1" dy="1"/>
<feGaussianBlur stdDeviation="1.5"/>
<feComposite in2="hardAlpha" operator="arithmetic" k2="-1" k3="1"/>
<feColorMatrix type="matrix" values="0 0 0 0 0.965381 0 0 0 0 0.835562 0 0 0 0 0.497586 0 0 0 0.5 0"/>
<feBlend mode="normal" in2="effect2_innerShadow_30_325" result="effect3_innerShadow_30_325"/>
</filter>
<filter id="filter8_i_30_325" x="363.383" y="188.906" width="45.2754" height="84.9192" filterUnits="userSpaceOnUse" color-interpolation-filters="sRGB">
<feFlood flood-opacity="0" result="BackgroundImageFix"/>
<feBlend mode="normal" in="SourceGraphic" in2="BackgroundImageFix" result="shape"/>
<feColorMatrix in="SourceAlpha" type="matrix" values="0 0 0 0 0 0 0 0 0 0 0 0 0 0 0 0 0 0 127 0" result="hardAlpha"/>
<feOffset dx="12"/>
<feGaussianBlur stdDeviation="2"/>
<feComposite in2="hardAlpha" operator="arithmetic" k2="-1" k3="1"/>
<feColorMatrix type="matrix" values="0 0 0 0 0.431373 0 0 0 0 0.203922 0 0 0 0 0.0627451 0 0 0 0.35 0"/>
<feBlend mode="normal" in2="shape" result="effect1_innerShadow_30_325"/>
</filter>
<filter id="filter9_i_30_325" x="367.733" y="207.477" width="32.8047" height="50.5254" filterUnits="userSpaceOnUse" color-interpolation-filters="sRGB">
<feFlood flood-opacity="0" result="BackgroundImageFix"/>
<feBlend mode="normal" in="SourceGraphic" in2="BackgroundImageFix" result="shape"/>
<feColorMatrix in="SourceAlpha" type="matrix" values="0 0 0 0 0 0 0 0 0 0 0 0 0 0 0 0 0 0 127 0" result="hardAlpha"/>
<feOffset dx="12"/>
<feGaussianBlur stdDeviation="2"/>
<feComposite in2="hardAlpha" operator="arithmetic" k2="-1" k3="1"/>
<feColorMatrix type="matrix" values="0 0 0 0 0.431373 0 0 0 0 0.203922 0 0 0 0 0.0627451 0 0 0 0.35 0"/>
<feBlend mode="normal" in2="shape" result="effect1_innerShadow_30_325"/>
</filter>
<filter id="filter10_f_30_325" x="389.213" y="254.092" width="3.22168" height="3.88208" filterUnits="userSpaceOnUse" color-interpolation-filters="sRGB">
<feFlood flood-opacity="0" result="BackgroundImageFix"/>
<feBlend mode="normal" in="SourceGraphic" in2="BackgroundImageFix" result="shape"/>
<feGaussianBlur stdDeviation="0.5" result="effect1_foregroundBlur_30_325"/>
</filter>
<filter id="filter11_ii_30_325" x="389.5" y="254.5" width="8" height="8.5" filterUnits="userSpaceOnUse" color-interpolation-filters="sRGB">
<feFlood flood-opacity="0" result="BackgroundImageFix"/>
<feBlend mode="normal" in="SourceGraphic" in2="BackgroundImageFix" result="shape"/>
<feColorMatrix in="SourceAlpha" type="matrix" values="0 0 0 0 0 0 0 0 0 0 0 0 0 0 0 0 0 0 127 0" result="hardAlpha"/>
<feOffset dx="0.5" dy="-0.5"/>
<feGaussianBlur stdDeviation="1.5"/>
<feComposite in2="hardAlpha" operator="arithmetic" k2="-1" k3="1"/>
<feColorMatrix type="matrix" values="0 0 0 0 0.435294 0 0 0 0 0.207843 0 0 0 0 0.0666667 0 0 0 0.9 0"/>
<feBlend mode="normal" in2="shape" result="effect1_innerShadow_30_325"/>
<feColorMatrix in="SourceAlpha" type="matrix" values="0 0 0 0 0 0 0 0 0 0 0 0 0 0 0 0 0 0 127 0" result="hardAlpha"/>
<feOffset dx="-0.5" dy="0.5"/>
<feGaussianBlur stdDeviation="0.5"/>
<feComposite in2="hardAlpha" operator="arithmetic" k2="-1" k3="1"/>
<feColorMatrix type="matrix" values="0 0 0 0 0.965381 0 0 0 0 0.835562 0 0 0 0 0.497586 0 0 0 0.5 0"/>
<feBlend mode="normal" in2="effect1_innerShadow_30_325" result="effect2_innerShadow_30_325"/>
</filter>
<filter id="filter12_dii_30_325" x="377" y="256" width="13" height="13" filterUnits="userSpaceOnUse" color-interpolation-filters="sRGB">
<feFlood flood-opacity="0" result="BackgroundImageFix"/>
<feColorMatrix in="SourceAlpha" type="matrix" values="0 0 0 0 0 0 0 0 0 0 0 0 0 0 0 0 0 0 127 0" result="hardAlpha"/>
<feOffset dx="-1" dy="1"/>
<feGaussianBlur stdDeviation="1.5"/>
<feComposite in2="hardAlpha" operator="out"/>
<feColorMatrix type="matrix" values="0 0 0 0 0.435294 0 0 0 0 0.207843 0 0 0 0 0.0666667 0 0 0 0.9 0"/>
<feBlend mode="normal" in2="BackgroundImageFix" result="effect1_dropShadow_30_325"/>
<feBlend mode="normal" in="SourceGraphic" in2="effect1_dropShadow_30_325" result="shape"/>
<feColorMatrix in="SourceAlpha" type="matrix" values="0 0 0 0 0 0 0 0 0 0 0 0 0 0 0 0 0 0 127 0" result="hardAlpha"/>
<feOffset dx="0.5" dy="-0.5"/>
<feComposite in2="hardAlpha" operator="arithmetic" k2="-1" k3="1"/>
<feColorMatrix type="matrix" values="0 0 0 0 0.819608 0 0 0 0 0.592157 0 0 0 0 0 0 0 0 1 0"/>
<feBlend mode="normal" in2="shape" result="effect2_innerShadow_30_325"/>
<feColorMatrix in="SourceAlpha" type="matrix" values="0 0 0 0 0 0 0 0 0 0 0 0 0 0 0 0 0 0 127 0" result="hardAlpha"/>
<feOffset dx="-1" dy="1"/>
<feGaussianBlur stdDeviation="1"/>
<feComposite in2="hardAlpha" operator="arithmetic" k2="-1" k3="1"/>
<feColorMatrix type="matrix" values="0 0 0 0 0.924105 0 0 0 0 0.924105 0 0 0 0 0.924105 0 0 0 1 0"/>
<feBlend mode="normal" in2="effect2_innerShadow_30_325" result="effect3_innerShadow_30_325"/>
</filter>
<filter id="filter13_dii_30_325" x="366" y="260" width="15" height="15" filterUnits="userSpaceOnUse" color-interpolation-filters="sRGB">
<feFlood flood-opacity="0" result="BackgroundImageFix"/>
<feColorMatrix in="SourceAlpha" type="matrix" values="0 0 0 0 0 0 0 0 0 0 0 0 0 0 0 0 0 0 127 0" result="hardAlpha"/>
<feOffset dx="-1" dy="1"/>
<feGaussianBlur stdDeviation="1.5"/>
<feComposite in2="hardAlpha" operator="out"/>
<feColorMatrix type="matrix" values="0 0 0 0 0.435294 0 0 0 0 0.207843 0 0 0 0 0.0666667 0 0 0 1 0"/>
<feBlend mode="normal" in2="BackgroundImageFix" result="effect1_dropShadow_30_325"/>
<feBlend mode="normal" in="SourceGraphic" in2="effect1_dropShadow_30_325" result="shape"/>
<feColorMatrix in="SourceAlpha" type="matrix" values="0 0 0 0 0 0 0 0 0 0 0 0 0 0 0 0 0 0 127 0" result="hardAlpha"/>
<feOffset dx="0.5" dy="-0.5"/>
<feComposite in2="hardAlpha" operator="arithmetic" k2="-1" k3="1"/>
<feColorMatrix type="matrix" values="0 0 0 0 0.694118 0 0 0 0 0.501961 0 0 0 0 0.00392157 0 0 0 1 0"/>
<feBlend mode="normal" in2="shape" result="effect2_innerShadow_30_325"/>
<feColorMatrix in="SourceAlpha" type="matrix" values="0 0 0 0 0 0 0 0 0 0 0 0 0 0 0 0 0 0 127 0" result="hardAlpha"/>
<feOffset dx="-1" dy="1"/>
<feGaussianBlur stdDeviation="1.5"/>
<feComposite in2="hardAlpha" operator="arithmetic" k2="-1" k3="1"/>
<feColorMatrix type="matrix" values="0 0 0 0 0.965381 0 0 0 0 0.835562 0 0 0 0 0.497586 0 0 0 0.5 0"/>
<feBlend mode="normal" in2="effect2_innerShadow_30_325" result="effect3_innerShadow_30_325"/>
</filter>
<filter id="filter14_f_30_325" x="275.695" y="163" width="124.754" height="210" filterUnits="userSpaceOnUse" color-interpolation-filters="sRGB">
<feFlood flood-opacity="0" result="BackgroundImageFix"/>
<feBlend mode="normal" in="SourceGraphic" in2="BackgroundImageFix" result="shape"/>
<feGaussianBlur stdDeviation="7.5" result="effect1_foregroundBlur_30_325"/>
</filter>
<filter id="filter15_f_30_325" x="94.9404" y="163" width="124.754" height="210" filterUnits="userSpaceOnUse" color-interpolation-filters="sRGB">
<feFlood flood-opacity="0" result="BackgroundImageFix"/>
<feBlend mode="normal" in="SourceGraphic" in2="BackgroundImageFix" result="shape"/>
<feGaussianBlur stdDeviation="7.5" result="effect1_foregroundBlur_30_325"/>
</filter>
<filter id="filter16_f_30_325" x="86.6582" y="196.602" width="165.626" height="121.247" filterUnits="userSpaceOnUse" color-interpolation-filters="sRGB">
<feFlood flood-opacity="0" result="BackgroundImageFix"/>
<feBlend mode="normal" in="SourceGraphic" in2="BackgroundImageFix" result="shape"/>
<feGaussianBlur stdDeviation="20" result="effect1_foregroundBlur_30_325"/>
</filter>
<filter id="filter17_f_30_325" x="242.926" y="190.456" width="165.625" height="127.392" filterUnits="userSpaceOnUse" color-interpolation-filters="sRGB">
<feFlood flood-opacity="0" result="BackgroundImageFix"/>
<feBlend mode="normal" in="SourceGraphic" in2="BackgroundImageFix" result="shape"/>
<feGaussianBlur stdDeviation="20" result="effect1_foregroundBlur_30_325"/>
</filter>
<filter id="filter18_f_30_325" x="224.57" y="330.518" width="46" height="23.9818" filterUnits="userSpaceOnUse" color-interpolation-filters="sRGB">
<feFlood flood-opacity="0" result="BackgroundImageFix"/>
<feBlend mode="normal" in="SourceGraphic" in2="BackgroundImageFix" result="shape"/>
<feGaussianBlur stdDeviation="4" result="effect1_foregroundBlur_30_325"/>
</filter>
<filter id="filter19_f_30_325" x="210.57" y="326" width="74" height="62" filterUnits="userSpaceOnUse" color-interpolation-filters="sRGB">
<feFlood flood-opacity="0" result="BackgroundImageFix"/>
<feBlend mode="normal" in="SourceGraphic" in2="BackgroundImageFix" result="shape"/>
<feGaussianBlur stdDeviation="12.5" result="effect1_foregroundBlur_30_325"/>
</filter>
<filter id="filter20_f_30_325" x="152.431" y="29" width="193.402" height="135.369" filterUnits="userSpaceOnUse" color-interpolation-filters="sRGB">
<feFlood flood-opacity="0" result="BackgroundImageFix"/>
<feBlend mode="normal" in="SourceGraphic" in2="BackgroundImageFix" result="shape"/>
<feGaussianBlur stdDeviation="17.5" result="effect1_foregroundBlur_30_325"/>
</filter>
<filter id="filter21_f_30_325" x="202.865" y="291" width="91.1487" height="25.7678" filterUnits="userSpaceOnUse" color-interpolation-filters="sRGB">
<feFlood flood-opacity="0" result="BackgroundImageFix"/>
<feBlend mode="normal" in="SourceGraphic" in2="BackgroundImageFix" result="shape"/>
<feGaussianBlur stdDeviation="3" result="effect1_foregroundBlur_30_325"/>
</filter>
<filter id="filter22_f_30_325" x="199.26" y="299.097" width="98.5063" height="42.4033" filterUnits="userSpaceOnUse" color-interpolation-filters="sRGB">
<feFlood flood-opacity="0" result="BackgroundImageFix"/>
<feBlend mode="normal" in="SourceGraphic" in2="BackgroundImageFix" result="shape"/>
<feGaussianBlur stdDeviation="3" result="effect1_foregroundBlur_30_325"/>
</filter>
<filter id="filter23_i_30_325" x="198.999" y="300.575" width="99.0012" height="21.9995" filterUnits="userSpaceOnUse" color-interpolation-filters="sRGB">
<feFlood flood-opacity="0" result="BackgroundImageFix"/>
<feBlend mode="normal" in="SourceGraphic" in2="BackgroundImageFix" result="shape"/>
<feColorMatrix in="SourceAlpha" type="matrix" values="0 0 0 0 0 0 0 0 0 0 0 0 0 0 0 0 0 0 127 0" result="hardAlpha"/>
<feOffset dy="4"/>
<feComposite in2="hardAlpha" operator="arithmetic" k2="-1" k3="1"/>
<feColorMatrix type="matrix" values="0 0 0 0 0.992157 0 0 0 0 0.992157 0 0 0 0 1 0 0 0 1 0"/>
<feBlend mode="normal" in2="shape" result="effect1_innerShadow_30_325"/>
</filter>
<filter id="filter24_f_30_325" x="212.904" y="181.991" width="30.2959" height="49.7529" filterUnits="userSpaceOnUse" color-interpolation-filters="sRGB">
<feFlood flood-opacity="0" result="BackgroundImageFix"/>
<feBlend mode="normal" in="SourceGraphic" in2="BackgroundImageFix" result="shape"/>
<feGaussianBlur stdDeviation="5" result="effect1_foregroundBlur_30_325"/>
</filter>
<filter id="filter25_dd_30_325" x="129" y="124.617" width="102" height="121" filterUnits="userSpaceOnUse" color-interpolation-filters="sRGB">
<feFlood flood-opacity="0" result="BackgroundImageFix"/>
<feColorMatrix in="SourceAlpha" type="matrix" values="0 0 0 0 0 0 0 0 0 0 0 0 0 0 0 0 0 0 127 0" result="hardAlpha"/>
<feOffset dx="-10" dy="-8"/>
<feGaussianBlur stdDeviation="6"/>
<feComposite in2="hardAlpha" operator="out"/>
<feColorMatrix type="matrix" values="0 0 0 0 0.266667 0 0 0 0 0.0862745 0 0 0 0 0.0117647 0 0 0 0.35 0"/>
<feBlend mode="normal" in2="BackgroundImageFix" result="effect1_dropShadow_30_325"/>
<feColorMatrix in="SourceAlpha" type="matrix" values="0 0 0 0 0 0 0 0 0 0 0 0 0 0 0 0 0 0 127 0" result="hardAlpha"/>
<feOffset dx="-8" dy="8"/>
<feGaussianBlur stdDeviation="6"/>
<feComposite in2="hardAlpha" operator="out"/>
<feColorMatrix type="matrix" values="0 0 0 0 0.266667 0 0 0 0 0.0862745 0 0 0 0 0.0117647 0 0 0 0.3 0"/>
<feBlend mode="normal" in2="effect1_dropShadow_30_325" result="effect2_dropShadow_30_325"/>
<feBlend mode="normal" in="SourceGraphic" in2="effect2_dropShadow_30_325" result="shape"/>
</filter>
<filter id="filter26_i_30_325" x="151" y="144.617" width="76" height="81" filterUnits="userSpaceOnUse" color-interpolation-filters="sRGB">
<feFlood flood-opacity="0" result="BackgroundImageFix"/>
<feBlend mode="normal" in="SourceGraphic" in2="BackgroundImageFix" result="shape"/>
<feColorMatrix in="SourceAlpha" type="matrix" values="0 0 0 0 0 0 0 0 0 0 0 0 0 0 0 0 0 0 127 0" result="hardAlpha"/>
<feOffset dx="2" dy="-1"/>
<feComposite in2="hardAlpha" operator="arithmetic" k2="-1" k3="1"/>
<feColorMatrix type="matrix" values="0 0 0 0 0.133333 0 0 0 0 0.133333 0 0 0 0 0.133333 0 0 0 1 0"/>
<feBlend mode="normal" in2="shape" result="effect1_innerShadow_30_325"/>
</filter>
<filter id="filter27_f_30_325" x="169.032" y="160.096" width="46.5027" height="53.7642" filterUnits="userSpaceOnUse" color-interpolation-filters="sRGB">
<feFlood flood-opacity="0" result="BackgroundImageFix"/>
<feBlend mode="normal" in="SourceGraphic" in2="BackgroundImageFix" result="shape"/>
<feGaussianBlur stdDeviation="2" result="effect1_foregroundBlur_30_325"/>
</filter>
<filter id="filter28_f_30_325" x="184.262" y="143.624" width="46.0222" height="49.9827" filterUnits="userSpaceOnUse" color-interpolation-filters="sRGB">
<feFlood flood-opacity="0" result="BackgroundImageFix"/>
<feBlend mode="normal" in="SourceGraphic" in2="BackgroundImageFix" result="shape"/>
<feGaussianBlur stdDeviation="4" result="effect1_foregroundBlur_30_325"/>
</filter>
<filter id="filter29_f_30_325" x="252.987" y="181.991" width="30.2959" height="49.7529" filterUnits="userSpaceOnUse" color-interpolation-filters="sRGB">
<feFlood flood-opacity="0" result="BackgroundImageFix"/>
<feBlend mode="normal" in="SourceGraphic" in2="BackgroundImageFix" result="shape"/>
<feGaussianBlur stdDeviation="5" result="effect1_foregroundBlur_30_325"/>
</filter>
<filter id="filter30_dd_30_325" x="263" y="124.744" width="104" height="121" filterUnits="userSpaceOnUse" color-interpolation-filters="sRGB">
<feFlood flood-opacity="0" result="BackgroundImageFix"/>
<feColorMatrix in="SourceAlpha" type="matrix" values="0 0 0 0 0 0 0 0 0 0 0 0 0 0 0 0 0 0 127 0" result="hardAlpha"/>
<feOffset dx="10" dy="-8"/>
<feGaussianBlur stdDeviation="6"/>
<feComposite in2="hardAlpha" operator="out"/>
<feColorMatrix type="matrix" values="0 0 0 0 0.266667 0 0 0 0 0.0862745 0 0 0 0 0.0117647 0 0 0 0.35 0"/>
<feBlend mode="normal" in2="BackgroundImageFix" result="effect1_dropShadow_30_325"/>
<feColorMatrix in="SourceAlpha" type="matrix" values="0 0 0 0 0 0 0 0 0 0 0 0 0 0 0 0 0 0 127 0" result="hardAlpha"/>
<feOffset dx="6" dy="8"/>
<feGaussianBlur stdDeviation="6"/>
<feComposite in2="hardAlpha" operator="out"/>
<feColorMatrix type="matrix" values="0 0 0 0 0.266667 0 0 0 0 0.0862745 0 0 0 0 0.0117647 0 0 0 0.3 0"/>
<feBlend mode="normal" in2="effect1_dropShadow_30_325" result="effect2_dropShadow_30_325"/>
<feBlend mode="normal" in="SourceGraphic" in2="effect2_dropShadow_30_325" result="shape"/>
</filter>
<filter id="filter31_i_30_325" x="269" y="144.744" width="76" height="81" filterUnits="userSpaceOnUse" color-interpolation-filters="sRGB">
<feFlood flood-opacity="0" result="BackgroundImageFix"/>
<feBlend mode="normal" in="SourceGraphic" in2="BackgroundImageFix" result="shape"/>
<feColorMatrix in="SourceAlpha" type="matrix" values="0 0 0 0 0 0 0 0 0 0 0 0 0 0 0 0 0 0 127 0" result="hardAlpha"/>
<feOffset dx="-2" dy="-1"/>
<feComposite in2="hardAlpha" operator="arithmetic" k2="-1" k3="1"/>
<feColorMatrix type="matrix" values="0 0 0 0 0.133333 0 0 0 0 0.133333 0 0 0 0 0.133333 0 0 0 1 0"/>
<feBlend mode="normal" in2="shape" result="effect1_innerShadow_30_325"/>
</filter>
<filter id="filter32_f_30_325" x="281" y="160.26" width="46.5027" height="53.7639" filterUnits="userSpaceOnUse" color-interpolation-filters="sRGB">
<feFlood flood-opacity="0" result="BackgroundImageFix"/>
<feBlend mode="normal" in="SourceGraphic" in2="BackgroundImageFix" result="shape"/>
<feGaussianBlur stdDeviation="2" result="effect1_foregroundBlur_30_325"/>
</filter>
<filter id="filter33_f_30_325" x="298.63" y="146.192" width="46.0225" height="49.9829" filterUnits="userSpaceOnUse" color-interpolation-filters="sRGB">
<feFlood flood-opacity="0" result="BackgroundImageFix"/>
<feBlend mode="normal" in="SourceGraphic" in2="BackgroundImageFix" result="shape"/>
<feGaussianBlur stdDeviation="4" result="effect1_foregroundBlur_30_325"/>
</filter>
<filter id="filter34_d_30_325" x="215" y="200" width="67.9036" height="89.5" filterUnits="userSpaceOnUse" color-interpolation-filters="sRGB">
<feFlood flood-opacity="0" result="BackgroundImageFix"/>
<feColorMatrix in="SourceAlpha" type="matrix" values="0 0 0 0 0 0 0 0 0 0 0 0 0 0 0 0 0 0 127 0" result="hardAlpha"/>
<feOffset dy="4"/>
<feGaussianBlur stdDeviation="3"/>
<feComposite in2="hardAlpha" operator="out"/>
<feColorMatrix type="matrix" values="0 0 0 0 0.45098 0 0 0 0 0.219608 0 0 0 0 0.0666667 0 0 0 1 0"/>
<feBlend mode="normal" in2="BackgroundImageFix" result="effect1_dropShadow_30_325"/>
<feBlend mode="normal" in="SourceGraphic" in2="effect1_dropShadow_30_325" result="shape"/>
</filter>
<filter id="filter35_f_30_325" x="232.909" y="247" width="32" height="37.5" filterUnits="userSpaceOnUse" color-interpolation-filters="sRGB">
<feFlood flood-opacity="0" result="BackgroundImageFix"/>
<feBlend mode="normal" in="SourceGraphic" in2="BackgroundImageFix" result="shape"/>
<feGaussianBlur stdDeviation="2.5" result="effect1_foregroundBlur_30_325"/>
</filter>
<filter id="filter36_f_30_325" x="223.751" y="260.179" width="3.21973" height="3.87451" filterUnits="userSpaceOnUse" color-interpolation-filters="sRGB">
<feFlood flood-opacity="0" result="BackgroundImageFix"/>
<feBlend mode="normal" in="SourceGraphic" in2="BackgroundImageFix" result="shape"/>
<feGaussianBlur stdDeviation="0.5" result="effect1_foregroundBlur_30_325"/>
</filter>
<filter id="filter37_ii_30_325" x="216.274" y="261.356" width="9.77173" height="11.2788" filterUnits="userSpaceOnUse" color-interpolation-filters="sRGB">
<feFlood flood-opacity="0" result="BackgroundImageFix"/>
<feBlend mode="normal" in="SourceGraphic" in2="BackgroundImageFix" result="shape"/>
<feColorMatrix in="SourceAlpha" type="matrix" values="0 0 0 0 0 0 0 0 0 0 0 0 0 0 0 0 0 0 127 0" result="hardAlpha"/>
<feOffset dx="0.5" dy="-0.5"/>
<feGaussianBlur stdDeviation="1.5"/>
<feComposite in2="hardAlpha" operator="arithmetic" k2="-1" k3="1"/>
<feColorMatrix type="matrix" values="0 0 0 0 0.289893 0 0 0 0 0.289893 0 0 0 0 0.289893 0 0 0 0.9 0"/>
<feBlend mode="normal" in2="shape" result="effect1_innerShadow_30_325"/>
<feColorMatrix in="SourceAlpha" type="matrix" values="0 0 0 0 0 0 0 0 0 0 0 0 0 0 0 0 0 0 127 0" result="hardAlpha"/>
<feOffset dx="-0.5" dy="0.5"/>
<feGaussianBlur stdDeviation="0.5"/>
<feComposite in2="hardAlpha" operator="arithmetic" k2="-1" k3="1"/>
<feColorMatrix type="matrix" values="0 0 0 0 0.867106 0 0 0 0 0.867106 0 0 0 0 0.867106 0 0 0 0.5 0"/>
<feBlend mode="normal" in2="effect1_innerShadow_30_325" result="effect2_innerShadow_30_325"/>
</filter>
<filter id="filter38_f_30_325" x="225.251" y="262.18" width="3.21973" height="3.87451" filterUnits="userSpaceOnUse" color-interpolation-filters="sRGB">
<feFlood flood-opacity="0" result="BackgroundImageFix"/>
<feBlend mode="normal" in="SourceGraphic" in2="BackgroundImageFix" result="shape"/>
<feGaussianBlur stdDeviation="0.5" result="effect1_foregroundBlur_30_325"/>
</filter>
<filter id="filter39_ii_30_325" x="217.837" y="263.124" width="9.77173" height="11.2788" filterUnits="userSpaceOnUse" color-interpolation-filters="sRGB">
<feFlood flood-opacity="0" result="BackgroundImageFix"/>
<feBlend mode="normal" in="SourceGraphic" in2="BackgroundImageFix" result="shape"/>
<feColorMatrix in="SourceAlpha" type="matrix" values="0 0 0 0 0 0 0 0 0 0 0 0 0 0 0 0 0 0 127 0" result="hardAlpha"/>
<feOffset dx="0.5" dy="-0.5"/>
<feGaussianBlur stdDeviation="1.5"/>
<feComposite in2="hardAlpha" operator="arithmetic" k2="-1" k3="1"/>
<feColorMatrix type="matrix" values="0 0 0 0 0.289893 0 0 0 0 0.289893 0 0 0 0 0.289893 0 0 0 0.9 0"/>
<feBlend mode="normal" in2="shape" result="effect1_innerShadow_30_325"/>
<feColorMatrix in="SourceAlpha" type="matrix" values="0 0 0 0 0 0 0 0 0 0 0 0 0 0 0 0 0 0 127 0" result="hardAlpha"/>
<feOffset dx="-0.5" dy="0.5"/>
<feGaussianBlur stdDeviation="0.5"/>
<feComposite in2="hardAlpha" operator="arithmetic" k2="-1" k3="1"/>
<feColorMatrix type="matrix" values="0 0 0 0 0.867106 0 0 0 0 0.867106 0 0 0 0 0.867106 0 0 0 0.5 0"/>
<feBlend mode="normal" in2="effect1_innerShadow_30_325" result="effect2_innerShadow_30_325"/>
</filter>
<filter id="filter40_i_30_325" x="107" y="2.49976" width="193" height="256.5" filterUnits="userSpaceOnUse" color-interpolation-filters="sRGB">
<feFlood flood-opacity="0" result="BackgroundImageFix"/>
<feBlend mode="normal" in="SourceGraphic" in2="BackgroundImageFix" result="shape"/>
<feColorMatrix in="SourceAlpha" type="matrix" values="0 0 0 0 0 0 0 0 0 0 0 0 0 0 0 0 0 0 127 0" result="hardAlpha"/>
<feOffset dx="-2"/>
<feComposite in2="hardAlpha" operator="arithmetic" k2="-1" k3="1"/>
<feColorMatrix type="matrix" values="0 0 0 0 0.376628 0 0 0 0 0.147675 0 0 0 0 0.0168453 0 0 0 0.35 0"/>
<feBlend mode="normal" in2="shape" result="effect1_innerShadow_30_325"/>
</filter>
<filter id="filter41_i_30_325" x="225.665" y="0.498535" width="168.335" height="258.502" filterUnits="userSpaceOnUse" color-interpolation-filters="sRGB">
<feFlood flood-opacity="0" result="BackgroundImageFix"/>
<feBlend mode="normal" in="SourceGraphic" in2="BackgroundImageFix" result="shape"/>
<feColorMatrix in="SourceAlpha" type="matrix" values="0 0 0 0 0 0 0 0 0 0 0 0 0 0 0 0 0 0 127 0" result="hardAlpha"/>
<feOffset dx="2"/>
<feComposite in2="hardAlpha" operator="arithmetic" k2="-1" k3="1"/>
<feColorMatrix type="matrix" values="0 0 0 0 0.52549 0 0 0 0 0.196078 0 0 0 0 0.00784314 0 0 0 0.35 0"/>
<feBlend mode="normal" in2="shape" result="effect1_innerShadow_30_325"/>
</filter>
<linearGradient id="paint0_linear_30_325" x1="361.29" y1="7.17949" x2="361.29" y2="448" gradientUnits="userSpaceOnUse">
<stop stop-opacity="0"/>
<stop offset="1" stop-color="#863202"/>
</linearGradient>
<linearGradient id="paint1_linear_30_325" x1="195.015" y1="271" x2="132.015" y2="235" gradientUnits="userSpaceOnUse">
<stop stop-color="#863202" stop-opacity="0"/>
<stop offset="1" stop-color="#863202"/>
</linearGradient>
<linearGradient id="paint2_linear_30_325" x1="300.194" y1="271" x2="363.194" y2="235" gradientUnits="userSpaceOnUse">
<stop stop-color="#863202"/>
<stop offset="1" stop-color="#863202" stop-opacity="0"/>
</linearGradient>
<radialGradient id="paint3_radial_30_325" cx="0" cy="0" r="1" gradientUnits="userSpaceOnUse" gradientTransform="translate(189 185.117) rotate(90) scale(40.5 38)">
<stop stop-color="white"/>
<stop offset="1" stop-color="#EBF5FA"/>
</radialGradient>
<radialGradient id="paint4_radial_30_325" cx="0" cy="0" r="1" gradientUnits="userSpaceOnUse" gradientTransform="translate(192.002 186.794) rotate(86) scale(37 32.5)">
<stop stop-opacity="0"/>
<stop offset="1"/>
</radialGradient>
<radialGradient id="paint5_radial_30_325" cx="0" cy="0" r="1" gradientUnits="userSpaceOnUse" gradientTransform="translate(307 185.244) rotate(90) scale(40.5 38)">
<stop stop-color="white"/>
<stop offset="1" stop-color="#EBF5FA"/>
</radialGradient>
<radialGradient id="paint6_radial_30_325" cx="0" cy="0" r="1" gradientUnits="userSpaceOnUse" gradientTransform="translate(303.998 186.921) rotate(94) scale(37 32.5)">
<stop stop-opacity="0"/>
<stop offset="1"/>
</radialGradient>
<linearGradient id="paint7_linear_30_325" x1="132.499" y1="142.511" x2="231.999" y2="128.011" gradientUnits="userSpaceOnUse">
<stop stop-color="#180900"/>
<stop offset="1" stop-color="#180900" stop-opacity="0.9"/>
</linearGradient>
<linearGradient id="paint8_linear_30_325" x1="363.5" y1="142.511" x2="264" y2="128.011" gradientUnits="userSpaceOnUse">
<stop stop-color="#180900"/>
<stop offset="1" stop-color="#180900" stop-opacity="0.9"/>
</linearGradient>
<linearGradient id="paint9_linear_30_325" x1="248.909" y1="215" x2="248.909" y2="282" gradientUnits="userSpaceOnUse">
<stop stop-color="#834315"/>
<stop offset="1" stop-color="#7B3E13"/>
</linearGradient>
<linearGradient id="paint10_linear_30_325" x1="248.909" y1="252" x2="248.909" y2="279.5" gradientUnits="userSpaceOnUse">
<stop stop-color="#904D19" stop-opacity="0"/>
<stop offset="1" stop-color="#904D19" stop-opacity="0.9"/>
</linearGradient>
<linearGradient id="paint11_linear_30_325" x1="312.327" y1="48.4292" x2="312.327" y2="259" gradientUnits="userSpaceOnUse">
<stop stop-opacity="0"/>
<stop offset="1" stop-color="#863202"/>
</linearGradient>
<linearGradient id="paint12_linear_30_325" x1="312.327" y1="48.4292" x2="312.327" y2="259" gradientUnits="userSpaceOnUse">
<stop stop-opacity="0"/>
<stop offset="1" stop-color="#863202"/>
</linearGradient>
<linearGradient id="paint13_linear_30_325" x1="312.327" y1="48.4292" x2="312.327" y2="259" gradientUnits="userSpaceOnUse">
<stop stop-opacity="0"/>
<stop offset="1" stop-color="#863202"/>
</linearGradient>
<linearGradient id="paint14_linear_30_325" x1="312.327" y1="48.4295" x2="312.327" y2="259" gradientUnits="userSpaceOnUse">
<stop stop-opacity="0"/>
<stop offset="1" stop-color="#863202"/>
</linearGradient>
<linearGradient id="paint15_linear_30_325" x1="312.327" y1="48.4295" x2="312.327" y2="259" gradientUnits="userSpaceOnUse">
<stop stop-opacity="0"/>
<stop offset="1" stop-color="#863202"/>
</linearGradient>
<linearGradient id="paint16_linear_30_325" x1="312.327" y1="48.4295" x2="312.327" y2="259" gradientUnits="userSpaceOnUse">
<stop stop-opacity="0"/>
<stop offset="1" stop-color="#863202"/>
</linearGradient>
<linearGradient id="paint17_linear_30_325" x1="312.327" y1="48.4295" x2="312.327" y2="259" gradientUnits="userSpaceOnUse">
<stop stop-opacity="0"/>
<stop offset="1" stop-color="#863202"/>
</linearGradient>
</defs>
</svg>
