<svg width="572" height="572" viewBox="0 0 572 572" fill="none" xmlns="http://www.w3.org/2000/svg">
<g filter="url(#filter0_i_48_623)">
<path fill-rule="evenodd" clip-rule="evenodd" d="M118.104 52.1045C101.016 54.0917 85.6644 58.8796 69.7679 67.1791C33.6375 86.0411 13.017 116.111 6.48549 159.464C4.50717 172.599 4.50417 198.26 6.4805 208.683C11.9369 237.459 27.0531 259.074 54.6817 277.61C66.6026 285.608 78.6504 290.914 115.823 304.539C137.258 312.395 155.312 319.635 159.709 322.134C168.342 327.044 182.745 340.188 186.481 346.565C191.07 354.399 192.968 362.349 192.997 373.862C193.035 388.912 189.705 397.616 179.854 408.226C154.196 435.856 105.141 449.83 33.8004 449.83V449.83C21.7404 449.83 11.9639 459.607 11.9639 471.667V485.423V485.423C11.9639 505.006 27.9723 520.81 47.5537 520.559L49.1823 520.538C86.4338 520.06 97.9431 519.191 119.872 515.196C155.648 508.679 193.302 493.935 213.939 478.362C231.972 464.755 248.585 442.83 256.2 422.591C268.629 389.557 266.726 348.253 251.298 316.156C241.442 295.65 232.283 284.149 216.175 272.049C196.587 257.335 176.919 247.589 136.359 232.496C111.388 223.205 90.9879 213.123 85.013 207.121C77.4424 199.518 76.4093 196.493 76.4093 181.944C76.4093 174.319 76.9518 167.501 77.8021 164.452C84.6373 139.914 106.418 124.712 138 122.431C157.286 121.038 196.819 124.755 233.776 131.435C244.492 133.371 253.822 134.958 254.508 134.96C255.485 134.963 255.757 127.124 255.757 99.0825V69.537C255.757 65.8749 253.121 62.7445 249.513 62.1213V62.1213C198.355 53.285 143.742 49.1218 118.104 52.1045ZM280.736 285.4V484.33C280.736 503.92 296.617 519.8 316.206 519.8V519.8V519.8C335.796 519.8 351.676 503.92 351.676 484.33V422.703V334.599C351.676 328.783 353.688 323.146 357.369 318.644V318.644C366.658 307.286 385.598 295.923 398.92 293.714C411.237 291.672 425.571 295.523 435.279 303.481C443.492 310.215 451.667 323.739 457.469 340.197C468.631 371.858 472.504 409.561 472.553 487.064V487.064C472.564 505.147 487.227 519.8 505.31 519.8H508.044V519.8C527.632 519.8 543.511 503.919 543.508 484.33L543.508 480.567C543.498 408.707 540.411 371.752 531.568 337.604C516.238 278.405 483.664 238.584 440.859 226.71C436.33 225.454 432.733 224.095 432.865 223.69C433.052 223.124 494.814 145.147 565.83 55.8199V55.8199C567.376 53.8749 565.989 51.0045 563.504 51.0075L522.866 51.057V51.057C493.334 51.0923 465.467 64.7354 447.326 88.039L414.123 130.691L401.093 147.43C385.048 168.041 352.004 156.755 351.92 130.635V130.635L351.778 86.4638C351.715 66.8593 335.805 51 316.2 51V51V51C296.614 51 280.736 66.8778 280.736 86.464V285.4Z" fill="#028EB2"/>
</g>
<path fill-rule="evenodd" clip-rule="evenodd" d="M118.104 52.1045C101.016 54.0917 85.6644 58.8796 69.7679 67.1791C33.6375 86.0411 13.017 116.111 6.48549 159.464C4.50717 172.599 4.50417 198.26 6.4805 208.683C11.9369 237.459 27.0531 259.074 54.6817 277.61C66.6026 285.608 78.6504 290.914 115.823 304.539C137.258 312.395 155.312 319.635 159.709 322.134C168.342 327.044 182.745 340.188 186.481 346.565C191.07 354.399 192.968 362.349 192.997 373.862C193.035 388.912 189.705 397.616 179.854 408.226C154.196 435.856 105.141 449.83 33.8004 449.83V449.83C21.7404 449.83 11.9639 459.607 11.9639 471.667V485.423V485.423C11.9639 505.006 27.9723 520.81 47.5537 520.559L49.1823 520.538C86.4338 520.06 97.9431 519.191 119.872 515.196C155.648 508.679 193.302 493.935 213.939 478.362C231.972 464.755 248.585 442.83 256.2 422.591C268.629 389.557 266.726 348.253 251.298 316.156C241.442 295.65 232.283 284.149 216.175 272.049C196.587 257.335 176.919 247.589 136.359 232.496C111.388 223.205 90.9879 213.123 85.013 207.121C77.4424 199.518 76.4093 196.493 76.4093 181.944C76.4093 174.319 76.9518 167.501 77.8021 164.452C84.6373 139.914 106.418 124.712 138 122.431C157.286 121.038 196.819 124.755 233.776 131.435C244.492 133.371 253.822 134.958 254.508 134.96C255.485 134.963 255.757 127.124 255.757 99.0825V69.537C255.757 65.8749 253.121 62.7445 249.513 62.1213V62.1213C198.355 53.285 143.742 49.1218 118.104 52.1045ZM280.736 285.4V484.33C280.736 503.92 296.617 519.8 316.206 519.8V519.8V519.8C335.796 519.8 351.676 503.92 351.676 484.33V422.703V334.599C351.676 328.783 353.688 323.146 357.369 318.644V318.644C366.658 307.286 385.598 295.923 398.92 293.714C411.237 291.672 425.571 295.523 435.279 303.481C443.492 310.215 451.667 323.739 457.469 340.197C468.631 371.858 472.504 409.561 472.553 487.064V487.064C472.564 505.147 487.227 519.8 505.31 519.8H508.044V519.8C527.632 519.8 543.511 503.919 543.508 484.33L543.508 480.567C543.498 408.707 540.411 371.752 531.568 337.604C516.238 278.405 483.664 238.584 440.859 226.71C436.33 225.454 432.733 224.095 432.865 223.69C433.052 223.124 494.814 145.147 565.83 55.8199V55.8199C567.376 53.8749 565.989 51.0045 563.504 51.0075L522.866 51.057V51.057C493.334 51.0923 465.467 64.7354 447.326 88.039L414.123 130.691L401.093 147.43C385.048 168.041 352.004 156.755 351.92 130.635V130.635L351.778 86.4638C351.715 66.8593 335.805 51 316.2 51V51V51C296.614 51 280.736 66.8778 280.736 86.464V285.4Z" stroke="#222222" stroke-width="8"/>
<defs>
<filter id="filter0_i_48_623" x="1" y="47" width="569.487" height="477.562" filterUnits="userSpaceOnUse" color-interpolation-filters="sRGB">
<feFlood flood-opacity="0" result="BackgroundImageFix"/>
<feBlend mode="normal" in="SourceGraphic" in2="BackgroundImageFix" result="shape"/>
<feColorMatrix in="SourceAlpha" type="matrix" values="0 0 0 0 0 0 0 0 0 0 0 0 0 0 0 0 0 0 127 0" result="hardAlpha"/>
<feOffset dx="36"/>
<feComposite in2="hardAlpha" operator="arithmetic" k2="-1" k3="1"/>
<feColorMatrix type="matrix" values="0 0 0 0 0.133333 0 0 0 0 0.133333 0 0 0 0 0.133333 0 0 0 1 0"/>
<feBlend mode="normal" in2="shape" result="effect1_innerShadow_48_623"/>
</filter>
</defs>
</svg>
