<svg width="205" height="192" viewBox="0 0 205 192" fill="none" xmlns="http://www.w3.org/2000/svg">
<path fill-rule="evenodd" clip-rule="evenodd" d="M17.4833 0.449924C13.1245 0.99606 4.7306 3.16335 2.37207 4.35182C0.130942 5.48119 -0.526894 6.73954 0.418851 8.08892C1.37711 9.45599 3.68515 9.25712 9.35444 7.31847C15.8892 5.08388 20.9844 4.25605 28.199 4.25605C43.1988 4.25605 59.0417 7.98151 67.7821 13.5637C75.3196 18.3779 83.4308 29.0781 86.47 38.2166C88.3058 43.737 88.1552 44.1309 83.9608 44.7805C74.9903 46.1705 67.6967 49.0163 62.86 53.0149C58.1235 56.9306 56.4354 60.4386 56.801 65.604C57.1756 70.8915 60.4519 75.7779 65.6904 78.8623C75.876 84.859 84.0955 83.0208 90.5616 73.3004C93.9298 68.2372 95.0551 64.3793 96.104 54.3017L96.6198 49.3455L98.7781 49.0125C101.134 48.6492 108.164 49.2562 113.119 50.2505C123.985 52.4308 138.767 61.2915 149.737 72.1995C162.176 84.5691 172.268 102.542 178.169 122.834C179.789 128.408 180.072 130.809 179.173 131.369C178.876 131.554 175.066 131.65 170.706 131.582C163.005 131.463 162.748 131.487 161.749 132.425C161.183 132.956 160.72 133.856 160.72 134.424C160.72 134.992 161.837 137.045 163.203 138.986C169.807 148.373 172.569 152.926 175.438 159.156C181.707 172.768 182.72 175.954 182.758 182.176C182.79 187.19 183.328 188.698 185.74 190.534L187.668 192L187.958 190.984C188.118 190.425 188.67 188.165 189.186 185.961C189.749 183.553 191.004 180.145 192.33 177.417C194.439 173.084 194.561 172.634 195.065 167.404C195.494 162.943 195.831 161.409 196.884 159.124C200.407 151.485 205.437 135.396 204.97 133.266C204.371 130.541 201.531 129.668 197.023 130.823C195.533 131.204 193.256 131.641 191.962 131.793C189.87 132.038 189.489 131.955 188.505 131.037C187.006 129.637 186.602 128.761 184.347 122.022C180.622 110.89 174.816 97.3494 170.229 89.0978C162.308 74.8512 148.796 61.5408 133.415 52.8358C124.772 47.9435 121.13 46.931 105.306 45.0169C100.349 44.4173 96.1403 43.8319 95.9525 43.7159C95.7647 43.5994 93.18 38.6048 90.209 32.6159C84.1417 20.3856 81.6796 16.8073 76.4264 12.5835C69.046 6.65025 57.4385 2.57364 42.3178 0.605223C36.6908 -0.127272 22.7857 -0.213981 17.4833 0.449924ZM89.5516 50.6302C90.1697 53.5351 89.9275 59.7734 89.0659 63.1404C87.351 69.842 84.7771 73.6658 80.3414 76.1023C77.4697 77.6794 73.4411 77.8606 70.7208 76.5345C67.9764 75.1964 64.2607 71.1396 63.2105 68.3343C62.0563 65.252 62.0749 64.0804 63.3185 61.4148C66.321 54.979 77.7723 49.0267 86.6893 49.2665C89.1941 49.3338 89.2852 49.3774 89.5516 50.6302Z" fill="#222222"/>
</svg>
