<svg width="197" height="195" viewBox="0 0 197 195" fill="none" xmlns="http://www.w3.org/2000/svg">
<g filter="url(#filter0_d_11_41)">
<g filter="url(#filter1_i_11_41)">
<path d="M62 146L56.7604 139.954L56.7248 139.985L56.6896 140.016L62 146ZM64.4 109.2L58.5744 114.683L58.6576 114.771L58.7432 114.857L64.4 109.2ZM48.8 99.2L46.0268 106.704L46.0992 106.731L46.172 106.756L48.8 99.2ZM30.2 92.3999L27.4267 99.904L27.4789 99.9231L30.2 92.3999ZM14.4 82.2L8.49577 87.598L8.57627 87.686L8.65936 87.7719L14.4 82.2ZM18.4 36.4L13.1562 30.3582L13.1277 30.383L13.0994 30.408L18.4 36.4ZM75.6 30H83.6V23.1844L76.8712 22.1016L75.6 30ZM75.6 37.4L74.1868 45.2741L83.6 46.9637V37.4H75.6ZM24 42.2L18.771 36.1454L18.7366 36.1752L18.7024 36.2053L24 42.2ZM27.8 81.6L31.3777 74.4444L31.3312 74.4212L31.2845 74.3988L27.8 81.6ZM40 86.7999L37.266 94.3184L37.3017 94.3312L37.3374 94.3439L40 86.7999ZM65.8 99.3999L60.8884 105.715L61.0172 105.815L61.15 105.91L65.8 99.3999ZM74.8 110.8L67.5304 114.14L67.5856 114.26L67.6444 114.378L74.8 110.8ZM73.8 144.8L67.0056 140.576L66.964 140.644L66.9236 140.711L73.8 144.8ZM47.4 163.2L45.1332 155.528L45.0828 155.543L45.032 155.558L47.4 163.2ZM10.4 167.6H2.4V175.6H10.4V167.6ZM10.4 160.2V152.2H2.4V160.2H10.4ZM67.2396 152.046C74.8664 145.435 79 136.949 79 127H63C63 131.985 61.1336 136.165 56.7604 139.954L67.2396 152.046ZM79 127C79 117.866 76.2504 109.736 70.0568 103.543L58.7432 114.857C61.3496 117.463 63 121.201 63 127H79ZM70.2256 103.717C65.0372 98.2043 58.7244 94.182 51.428 91.644L46.172 106.756C51.142 108.485 55.2296 111.129 58.5744 114.683L70.2256 103.717ZM51.5732 91.696C45.422 89.4228 39.2048 87.15 32.9211 84.8768L27.4789 99.9231C33.7285 102.184 39.9112 104.444 46.0268 106.704L51.5732 91.696ZM32.9732 84.896C27.9205 83.0288 23.6788 80.2736 20.1406 76.628L8.65936 87.7719C13.9212 93.1931 20.2128 97.238 27.4267 99.904L32.9732 84.896ZM20.3042 76.802C17.5737 73.8152 16 69.8992 16 64.4H0C0 73.3008 2.69294 81.2512 8.49577 87.598L20.3042 76.802ZM16 64.4C16 53.3083 19.0316 46.5222 23.7006 42.3919L13.0994 30.408C3.90179 38.5443 0 50.4249 0 64.4H16ZM23.6438 42.4417C29.1927 37.6256 35.7088 35.2 43.6 35.2V19.2C32.0246 19.2 21.7406 22.9076 13.1562 30.3582L23.6438 42.4417ZM43.6 35.2C52.8312 35.2 63.0664 36.086 74.3292 37.8983L76.8712 22.1016C64.9336 20.1806 53.8356 19.2 43.6 19.2V35.2ZM67.6 30V37.4H83.6V30H67.6ZM77.0132 29.5258C66.2212 27.5888 56.0108 26.5999 46.4 26.5999V42.5999C54.9228 42.5999 64.1788 43.4778 74.1868 45.2741L77.0132 29.5258ZM46.4 26.5999C35.7572 26.5999 26.3314 29.6159 18.771 36.1454L29.229 48.2546C33.4019 44.6506 38.9094 42.5999 46.4 42.5999V26.5999ZM18.7024 36.2053C10.9045 43.0965 7.4 52.6134 7.4 63.6H23.4C23.4 56.1865 25.6288 51.4367 29.2976 48.1946L18.7024 36.2053ZM7.4 63.6C7.4 69.0548 8.83576 74.1732 11.912 78.6384C14.9446 83.0408 19.2542 86.3523 24.3155 88.8011L31.2845 74.3988C28.0791 72.8476 26.1888 71.1592 25.0881 69.5616C24.0309 68.0268 23.4 66.1452 23.4 63.6H7.4ZM24.2223 88.7556C28.2603 90.7744 32.6122 92.626 37.266 94.3184L42.734 79.2816C38.5879 77.774 34.8064 76.1588 31.3777 74.4444L24.2223 88.7556ZM37.3374 94.3439C41.6734 95.8743 46.018 97.5987 50.3708 99.5191L56.8292 84.8808C52.1156 82.8012 47.3932 80.9256 42.6626 79.256L37.3374 94.3439ZM50.3708 99.5191C54.3556 101.277 57.8484 103.35 60.8884 105.715L70.7116 93.0852C66.5516 89.8496 61.9108 87.1228 56.8292 84.8808L50.3708 99.5191ZM61.15 105.91C63.5568 107.629 65.7388 110.24 67.5304 114.14L82.0696 107.46C79.328 101.493 75.51 96.5044 70.45 92.89L61.15 105.91ZM67.6444 114.378C69.3812 117.851 70.4 122.242 70.4 127.8H86.4C86.4 120.291 85.0188 113.349 81.9556 107.222L67.6444 114.378ZM70.4 127.8C70.4 132.864 69.2052 137.038 67.0056 140.576L80.5944 149.024C84.528 142.695 86.4 135.536 86.4 127.8H70.4ZM66.9236 140.711C64.5652 144.678 61.7452 147.589 58.5048 149.651L67.0952 163.149C72.6548 159.611 77.168 154.789 80.6764 148.889L66.9236 140.711ZM58.5048 149.651C54.8324 151.988 50.4044 153.97 45.1332 155.528L49.6668 170.872C56.1292 168.963 61.9676 166.412 67.0952 163.149L58.5048 149.651ZM45.032 155.558C36.4662 158.213 26.6171 159.6 15.4 159.6V175.6C27.9162 175.6 39.4005 174.054 49.768 170.842L45.032 155.558ZM15.4 159.6H10.4V175.6H15.4V159.6ZM18.4 167.6V160.2H2.4V167.6H18.4ZM10.4 168.2C34.8814 168.2 54.4756 163.374 67.3104 151.983L56.6896 140.016C48.1912 147.559 33.3852 152.2 10.4 152.2V168.2Z" fill="#028EB2"/>
</g>
<g filter="url(#filter2_i_11_41)">
<path d="M179.4 175.2H171.4H164H156V167.2V153.6C156 133.33 153.474 119.304 149.217 110.622C147.143 106.392 144.798 103.72 142.402 102.091C140.064 100.502 137.234 99.6 133.6 99.6C130.829 99.6 128.15 100.316 125.446 101.902L125.356 101.954L125.265 102.005C121.614 104.019 119.791 105.454 119.078 106.226C118.171 107.218 116.953 108.689 115.4 110.697V167.2V175.2H107.4H100H92V167.2V27.2V19.2H100H107.4H115.4V27.2V72.9445L155.093 22.0784L157.495 19H161.4H171.6H188.174L177.864 31.9766L142.167 76.9055C153.128 79.0241 161.903 85.8488 168.264 96.4907C176.062 109.316 179.4 127.957 179.4 151.2V167.2V175.2Z" fill="#028EB2"/>
</g>
</g>
<defs>
<filter id="filter0_d_11_41" x="0" y="19" width="196.174" height="164.6" filterUnits="userSpaceOnUse" color-interpolation-filters="sRGB">
<feFlood flood-opacity="0" result="BackgroundImageFix"/>
<feColorMatrix in="SourceAlpha" type="matrix" values="0 0 0 0 0 0 0 0 0 0 0 0 0 0 0 0 0 0 127 0" result="hardAlpha"/>
<feOffset dx="8" dy="8"/>
<feComposite in2="hardAlpha" operator="out"/>
<feColorMatrix type="matrix" values="0 0 0 0 0.0352941 0 0 0 0 0.737255 0 0 0 0 0.541176 0 0 0 1 0"/>
<feBlend mode="normal" in2="BackgroundImageFix" result="effect1_dropShadow_11_41"/>
<feBlend mode="normal" in="SourceGraphic" in2="effect1_dropShadow_11_41" result="shape"/>
</filter>
<filter id="filter1_i_11_41" x="0" y="19.2" width="86.4" height="156.4" filterUnits="userSpaceOnUse" color-interpolation-filters="sRGB">
<feFlood flood-opacity="0" result="BackgroundImageFix"/>
<feBlend mode="normal" in="SourceGraphic" in2="BackgroundImageFix" result="shape"/>
<feColorMatrix in="SourceAlpha" type="matrix" values="0 0 0 0 0 0 0 0 0 0 0 0 0 0 0 0 0 0 127 0" result="hardAlpha"/>
<feOffset dx="8" dy="2"/>
<feComposite in2="hardAlpha" operator="arithmetic" k2="-1" k3="1"/>
<feColorMatrix type="matrix" values="0 0 0 0 0.992157 0 0 0 0 0.992157 0 0 0 0 1 0 0 0 1 0"/>
<feBlend mode="normal" in2="shape" result="effect1_innerShadow_11_41"/>
</filter>
<filter id="filter2_i_11_41" x="92" y="19" width="96.1741" height="156.2" filterUnits="userSpaceOnUse" color-interpolation-filters="sRGB">
<feFlood flood-opacity="0" result="BackgroundImageFix"/>
<feBlend mode="normal" in="SourceGraphic" in2="BackgroundImageFix" result="shape"/>
<feColorMatrix in="SourceAlpha" type="matrix" values="0 0 0 0 0 0 0 0 0 0 0 0 0 0 0 0 0 0 127 0" result="hardAlpha"/>
<feOffset dx="8" dy="1"/>
<feComposite in2="hardAlpha" operator="arithmetic" k2="-1" k3="1"/>
<feColorMatrix type="matrix" values="0 0 0 0 0.992157 0 0 0 0 0.992157 0 0 0 0 1 0 0 0 1 0"/>
<feBlend mode="normal" in2="shape" result="effect1_innerShadow_11_41"/>
</filter>
</defs>
</svg>
