<svg width="197" height="165" viewBox="0 0 197 165" fill="none" xmlns="http://www.w3.org/2000/svg">
<g filter="url(#filter0_d_8_37)">
<path d="M62 127L56.7604 120.954L56.7248 120.985L56.6896 121.016L62 127ZM64.4 90.2L58.5744 95.6828L58.6576 95.7711L58.7432 95.8568L64.4 90.2ZM48.8 80.2L46.0268 87.7039L46.0992 87.7308L46.172 87.756L48.8 80.2ZM30.2 73.3999L27.4267 80.904L27.4789 80.9231L30.2 73.3999ZM14.4 63.2L8.49577 68.598L8.57627 68.686L8.65936 68.7719L14.4 63.2ZM18.4 17.4L13.1562 11.3582L13.1277 11.383L13.0994 11.408L18.4 17.4ZM75.6 11H83.6V4.18438L76.8712 3.10155L75.6 11ZM75.6 18.4L74.1868 26.2741L83.6 27.9637V18.4H75.6ZM24 23.2L18.771 17.1454L18.7366 17.1752L18.7024 17.2053L24 23.2ZM27.8 62.6L31.3777 55.4444L31.3312 55.4212L31.2845 55.3988L27.8 62.6ZM40 67.7999L37.266 75.3184L37.3017 75.3312L37.3374 75.3439L40 67.7999ZM65.8 80.3999L60.8884 86.7148L61.0172 86.8151L61.15 86.91L65.8 80.3999ZM74.8 91.7999L67.5304 95.14L67.5856 95.2596L67.6444 95.3775L74.8 91.7999ZM73.8 125.8L67.0056 121.576L66.964 121.644L66.9236 121.711L73.8 125.8ZM47.4 144.2L45.1332 136.528L45.0828 136.543L45.032 136.558L47.4 144.2ZM10.4 148.6H2.4V156.6H10.4V148.6ZM10.4 141.2V133.2H2.4V141.2H10.4ZM67.2396 133.046C74.8664 126.435 79 117.949 79 108H63C63 112.985 61.1336 117.165 56.7604 120.954L67.2396 133.046ZM79 108C79 98.8656 76.2504 90.7364 70.0568 84.5432L58.7432 95.8568C61.3496 98.4632 63 102.201 63 108H79ZM70.2256 84.7171C65.0372 79.2043 58.7244 75.182 51.428 72.644L46.172 87.756C51.142 89.4848 55.2296 92.1292 58.5744 95.6828L70.2256 84.7171ZM51.5732 72.696C45.422 70.4228 39.2048 68.15 32.9211 65.8768L27.4789 80.9231C33.7285 83.1835 39.9112 85.4439 46.0268 87.7039L51.5732 72.696ZM32.9732 65.896C27.9205 64.0288 23.6788 61.2736 20.1406 57.628L8.65936 68.7719C13.9212 74.1931 20.2128 78.238 27.4267 80.904L32.9732 65.896ZM20.3042 57.802C17.5737 54.8152 16 50.8992 16 45.4H0C0 54.3008 2.69294 62.2512 8.49577 68.598L20.3042 57.802ZM16 45.4C16 34.3083 19.0316 27.5222 23.7006 23.3919L13.0994 11.408C3.90179 19.5443 0 31.4249 0 45.4H16ZM23.6438 23.4417C29.1927 18.6256 35.7088 16.2 43.6 16.2V0.199951C32.0246 0.199951 21.7406 3.90757 13.1562 11.3582L23.6438 23.4417ZM43.6 16.2C52.8312 16.2 63.0664 17.086 74.3292 18.8983L76.8712 3.10155C64.9336 1.1806 53.8356 0.199951 43.6 0.199951V16.2ZM67.6 11V18.4H83.6V11H67.6ZM77.0132 10.5258C66.2212 8.58875 56.0108 7.59994 46.4 7.59994V23.5999C54.9228 23.5999 64.1788 24.4778 74.1868 26.2741L77.0132 10.5258ZM46.4 7.59994C35.7572 7.59994 26.3314 10.6159 18.771 17.1454L29.229 29.2546C33.4019 25.6506 38.9094 23.5999 46.4 23.5999V7.59994ZM18.7024 17.2053C10.9045 24.0965 7.4 33.6134 7.4 44.6H23.4C23.4 37.1865 25.6288 32.4367 29.2976 29.1946L18.7024 17.2053ZM7.4 44.6C7.4 50.0548 8.83576 55.1732 11.912 59.6384C14.9446 64.0408 19.2542 67.3523 24.3155 69.8011L31.2845 55.3988C28.0791 53.8476 26.1888 52.1592 25.0881 50.5616C24.0309 49.0268 23.4 47.1452 23.4 44.6H7.4ZM24.2223 69.7556C28.2603 71.7744 32.6122 73.626 37.266 75.3184L42.734 60.2816C38.5879 58.774 34.8064 57.1588 31.3777 55.4444L24.2223 69.7556ZM37.3374 75.3439C41.6734 76.8743 46.018 78.5987 50.3708 80.5191L56.8292 65.8808C52.1156 63.8012 47.3932 61.9256 42.6626 60.256L37.3374 75.3439ZM50.3708 80.5191C54.3556 82.2771 57.8484 84.3504 60.8884 86.7148L70.7116 74.0852C66.5516 70.8496 61.9108 68.1228 56.8292 65.8808L50.3708 80.5191ZM61.15 86.91C63.5568 88.6288 65.7388 91.24 67.5304 95.14L82.0696 88.46C79.328 82.4932 75.51 77.5044 70.45 73.89L61.15 86.91ZM67.6444 95.3775C69.3812 98.8511 70.4 103.242 70.4 108.8H86.4C86.4 101.291 85.0188 94.3488 81.9556 88.2224L67.6444 95.3775ZM70.4 108.8C70.4 113.864 69.2052 118.038 67.0056 121.576L80.5944 130.024C84.528 123.695 86.4 116.536 86.4 108.8H70.4ZM66.9236 121.711C64.5652 125.678 61.7452 128.589 58.5048 130.651L67.0952 144.149C72.6548 140.611 77.168 135.789 80.6764 129.889L66.9236 121.711ZM58.5048 130.651C54.8324 132.988 50.4044 134.97 45.1332 136.528L49.6668 151.872C56.1292 149.963 61.9676 147.412 67.0952 144.149L58.5048 130.651ZM45.032 136.558C36.4662 139.213 26.6171 140.6 15.4 140.6V156.6C27.9162 156.6 39.4005 155.054 49.768 151.842L45.032 136.558ZM15.4 140.6H10.4V156.6H15.4V140.6ZM18.4 148.6V141.2H2.4V148.6H18.4ZM10.4 149.2C34.8814 149.2 54.4756 144.374 67.3104 132.983L56.6896 121.016C48.1912 128.559 33.3852 133.2 10.4 133.2V149.2Z" fill="#028EB2"/>
<path d="M179.4 156.2H171.4H164H156V148.2V134.6C156 114.33 153.474 100.304 149.217 91.622C147.143 87.392 144.798 84.72 142.402 83.0908C140.064 81.5016 137.234 80.6 133.6 80.6C130.829 80.6 128.15 81.3164 125.446 82.9016L125.356 82.9544L125.265 83.0048C121.614 85.0188 119.791 86.4544 119.078 87.2264L119.078 87.2263C118.171 88.2184 116.953 89.6891 115.4 91.6971V148.2V156.2H107.4H100H92V148.2V8.19999V0.2H100H107.4H115.4V8.19999V53.9445L155.093 3.07838L157.495 0H161.4H171.6H188.174L177.864 12.9766L142.167 57.9055C153.128 60.0241 161.903 66.8488 168.264 77.4907C176.062 90.3162 179.4 108.957 179.4 132.2V148.2V156.2Z" fill="#028EB2"/>
</g>
<defs>
<filter id="filter0_d_8_37" x="0" y="0" width="196.174" height="164.6" filterUnits="userSpaceOnUse" color-interpolation-filters="sRGB">
<feFlood flood-opacity="0" result="BackgroundImageFix"/>
<feColorMatrix in="SourceAlpha" type="matrix" values="0 0 0 0 0 0 0 0 0 0 0 0 0 0 0 0 0 0 127 0" result="hardAlpha"/>
<feOffset dx="8" dy="8"/>
<feComposite in2="hardAlpha" operator="out"/>
<feColorMatrix type="matrix" values="0 0 0 0 0.0352941 0 0 0 0 0.737255 0 0 0 0 0.541176 0 0 0 1 0"/>
<feBlend mode="normal" in2="BackgroundImageFix" result="effect1_dropShadow_8_37"/>
<feBlend mode="normal" in="SourceGraphic" in2="effect1_dropShadow_8_37" result="shape"/>
</filter>
</defs>
</svg>
