<svg width="514" height="468" viewBox="0 0 514 468" fill="none" xmlns="http://www.w3.org/2000/svg">
<path d="M513.716 412.397C512.897 415.904 510.417 414.745 504.054 407.881C496.066 399.262 495.96 398.785 502.454 400.706C511.873 403.492 515.029 406.767 513.716 412.397Z" fill="black"/>
<path d="M513.716 412.397C512.897 415.904 510.417 414.745 504.054 407.881C496.066 399.262 495.96 398.785 502.454 400.706C511.873 403.492 515.029 406.767 513.716 412.397Z" fill="url(#paint0_linear_23_147)"/>
<path fill-rule="evenodd" clip-rule="evenodd" d="M249.201 7.9532C240.809 14.8832 238.575 15.3731 229.531 12.2802C215.577 7.50733 192.101 10.5845 183.569 18.3027C179.715 21.7881 167.058 28.8343 155.434 33.962C143.813 39.0896 132.032 46.4686 129.254 50.356C126.476 54.2465 120.862 59.057 116.782 61.0477C111.83 63.4593 108.476 68.8224 106.719 77.1466C101.765 100.587 94.4327 111.04 76.2412 120.604C60.0148 129.136 59.2339 130.109 61.1414 139.444C65.3116 159.883 64.9371 161.798 56.5487 162.9C52.148 163.478 47.1073 165.343 45.3471 167.045C43.2379 169.086 45.0302 169.444 50.599 168.097C62.9465 165.108 64.0858 170.597 53.233 180.795C46.5825 187.05 43.7468 192.721 43.7468 199.78C43.7468 211.577 39.8967 213.659 18.0695 213.659C9.51782 213.659 1.50381 215.27 0.262032 217.242C-1.38301 219.851 4.57308 220.41 22.2333 219.298C44.6109 217.888 46.592 218.262 48.1699 224.187C50.3206 232.26 45.8271 237.611 30.4265 245.32C11.5341 254.774 7.77034 265.045 10.3883 300.006C12.4046 326.966 13.368 330.194 21.7692 338.088C33.1373 348.774 33.2397 351.135 22.3901 352.397C17.6854 352.944 13.208 355.264 12.4398 357.553C11.2845 361.007 12.1998 361.013 17.807 357.578C26.1058 352.491 35.2432 357.01 36.7538 366.945C37.5027 371.865 35.6208 374.104 29.4695 375.621C15.8515 378.971 10.5804 395.004 19.26 406.654C23.1614 411.888 23.4366 411.489 22.0988 402.543C20.2874 390.432 23.1006 390.109 34.7695 401.077C50.9543 416.29 45.3214 433.843 22.9342 437.966C10.75 440.208 6.48696 445.656 9.96267 454.542C11.7805 459.189 12.6031 458.872 15.9796 452.231C18.6904 446.893 23.4942 443.957 31.6522 442.657C44.7581 440.569 53.3482 434.907 53.3482 428.367C53.3482 421.531 59.1155 423.311 64.8699 431.927C68.3552 437.149 69.4754 443.049 68.1824 449.395C66.5374 457.472 67.1038 458.731 71.7893 457.396C74.849 456.53 91.0241 454.247 107.737 452.331C130.83 449.681 171.346 444.876 193.051 440.718C216.394 444.628 258.254 445.232 329.865 440.754C338.011 443.819 413.164 454.931 437.478 456.665L461.558 458.379L460.397 446.425C459.6 438.248 460.925 432.813 464.58 429.227C471.579 422.36 475.81 425.277 475.81 436.97C475.81 442.45 477.148 445.58 479.011 444.45C480.771 443.382 482.211 438.355 482.211 433.275C482.211 422.652 485.383 421.616 492.917 429.783C500.294 437.78 499.526 452.096 491.255 460.734C487.428 464.728 485.821 468 487.687 468C492.939 468 501.414 453.433 501.414 444.406C501.414 434.11 494.734 421.449 484.215 411.809C475.234 403.576 475.823 398.92 485.847 398.92C491.38 398.92 490.833 397.704 482.022 390.432C465.645 376.914 455.964 347.244 468.609 349.326C472.347 349.942 474.549 347.901 475.234 343.184C477.414 328.109 485.373 338.082 485.46 356.002C485.498 363.579 486.25 364.829 488.612 361.24C493.694 353.524 492.248 340.647 485.325 332.015C479.004 324.131 468.075 301.579 470.574 301.579C471.265 301.579 477.125 303.752 483.6 306.405L495.371 311.232L480.79 297.522C467.697 285.213 466.209 282.369 466.209 269.636C466.209 261.836 468.881 247.505 472.149 237.79C475.413 228.078 476.853 220.875 475.349 221.788C473.842 222.702 472.61 221.729 472.61 219.628C472.61 217.527 463.968 207.664 453.407 197.714C433.177 178.651 430.655 174.261 439.805 174.063C442.884 173.994 450.046 172.883 455.717 171.589C470.648 168.185 482.192 179.935 482.259 198.602C482.297 208.465 483.142 210.823 485.411 207.379C487.117 204.788 488.535 196.882 488.564 189.81C488.631 171.903 481.721 166.559 458.508 166.559C442.442 166.559 438.928 165.397 430.757 157.38C422.513 149.292 421.402 145.982 421.402 129.503C421.402 117.088 419.859 109.552 416.806 107.065C414.281 105.008 411.295 99.2209 410.172 94.2063C407.55 82.5035 391.481 69.218 379.943 69.218C375.011 69.218 369.186 67.0985 366.994 64.508C363.63 60.5296 364.283 59.798 371.193 59.798C383.32 59.798 393.625 64.4232 407.445 76.0727L419.802 86.4881L411.519 75.6645C401.434 62.4796 385.608 54.0424 364.93 50.827C354.522 49.2099 344.274 44.5783 333.895 36.7974C305.964 15.866 290.417 8.44305 273.992 8.20755C262.163 8.03799 259.474 7.10541 262.048 4.06273C268.004 -2.9866 259.238 -0.333295 249.201 7.9532ZM31.2906 273.445C39.9031 261.415 46.9473 250.811 46.9473 249.885C46.9473 248.959 44.1789 248.199 40.7928 248.199C26.6723 248.199 8.40723 276.839 13.7744 290.564C15.0706 293.88 20.3738 288.699 31.2906 273.445ZM62.0311 188.985C59.5604 194.784 55.1565 201.469 52.2441 203.837C42.5626 211.715 45.7279 193.041 55.5949 184.067C66.3101 174.317 67.7984 175.454 62.0311 188.985ZM52.9738 223.079C54.5292 223.079 56.5551 220.253 57.4769 216.799C59.1219 210.626 56.4783 208.497 52.2825 212.613C49.178 215.659 49.6677 223.079 52.9738 223.079ZM158.788 42.7352C153.776 48.6604 136.589 57.7319 134.413 55.5998C132.633 53.8508 155.792 37.8179 160.1 37.8179C161.665 37.8179 161.076 40.0316 158.788 42.7352ZM393.654 89.7789C407.39 102.537 413.231 101.937 403.265 88.7929C399.684 84.0703 393.299 79.7999 389.077 79.3006C382.049 78.4748 382.44 79.3666 393.654 89.7789Z" fill="black"/>
<path fill-rule="evenodd" clip-rule="evenodd" d="M249.201 7.9532C240.809 14.8832 238.575 15.3731 229.531 12.2802C215.577 7.50733 192.101 10.5845 183.569 18.3027C179.715 21.7881 167.058 28.8343 155.434 33.962C143.813 39.0896 132.032 46.4686 129.254 50.356C126.476 54.2465 120.862 59.057 116.782 61.0477C111.83 63.4593 108.476 68.8224 106.719 77.1466C101.765 100.587 94.4327 111.04 76.2412 120.604C60.0148 129.136 59.2339 130.109 61.1414 139.444C65.3116 159.883 64.9371 161.798 56.5487 162.9C52.148 163.478 47.1073 165.343 45.3471 167.045C43.2379 169.086 45.0302 169.444 50.599 168.097C62.9465 165.108 64.0858 170.597 53.233 180.795C46.5825 187.05 43.7468 192.721 43.7468 199.78C43.7468 211.577 39.8967 213.659 18.0695 213.659C9.51782 213.659 1.50381 215.27 0.262032 217.242C-1.38301 219.851 4.57308 220.41 22.2333 219.298C44.6109 217.888 46.592 218.262 48.1699 224.187C50.3206 232.26 45.8271 237.611 30.4265 245.32C11.5341 254.774 7.77034 265.045 10.3883 300.006C12.4046 326.966 13.368 330.194 21.7692 338.088C33.1373 348.774 33.2397 351.135 22.3901 352.397C17.6854 352.944 13.208 355.264 12.4398 357.553C11.2845 361.007 12.1998 361.013 17.807 357.578C26.1058 352.491 35.2432 357.01 36.7538 366.945C37.5027 371.865 35.6208 374.104 29.4695 375.621C15.8515 378.971 10.5804 395.004 19.26 406.654C23.1614 411.888 23.4366 411.489 22.0988 402.543C20.2874 390.432 23.1006 390.109 34.7695 401.077C50.9543 416.29 45.3214 433.843 22.9342 437.966C10.75 440.208 6.48696 445.656 9.96267 454.542C11.7805 459.189 12.6031 458.872 15.9796 452.231C18.6904 446.893 23.4942 443.957 31.6522 442.657C44.7581 440.569 53.3482 434.907 53.3482 428.367C53.3482 421.531 59.1155 423.311 64.8699 431.927C68.3552 437.149 69.4754 443.049 68.1824 449.395C66.5374 457.472 67.1038 458.731 71.7893 457.396C74.849 456.53 91.0241 454.247 107.737 452.331C130.83 449.681 171.346 444.876 193.051 440.718C216.394 444.628 258.254 445.232 329.865 440.754C338.011 443.819 413.164 454.931 437.478 456.665L461.558 458.379L460.397 446.425C459.6 438.248 460.925 432.813 464.58 429.227C471.579 422.36 475.81 425.277 475.81 436.97C475.81 442.45 477.148 445.58 479.011 444.45C480.771 443.382 482.211 438.355 482.211 433.275C482.211 422.652 485.383 421.616 492.917 429.783C500.294 437.78 499.526 452.096 491.255 460.734C487.428 464.728 485.821 468 487.687 468C492.939 468 501.414 453.433 501.414 444.406C501.414 434.11 494.734 421.449 484.215 411.809C475.234 403.576 475.823 398.92 485.847 398.92C491.38 398.92 490.833 397.704 482.022 390.432C465.645 376.914 455.964 347.244 468.609 349.326C472.347 349.942 474.549 347.901 475.234 343.184C477.414 328.109 485.373 338.082 485.46 356.002C485.498 363.579 486.25 364.829 488.612 361.24C493.694 353.524 492.248 340.647 485.325 332.015C479.004 324.131 468.075 301.579 470.574 301.579C471.265 301.579 477.125 303.752 483.6 306.405L495.371 311.232L480.79 297.522C467.697 285.213 466.209 282.369 466.209 269.636C466.209 261.836 468.881 247.505 472.149 237.79C475.413 228.078 476.853 220.875 475.349 221.788C473.842 222.702 472.61 221.729 472.61 219.628C472.61 217.527 463.968 207.664 453.407 197.714C433.177 178.651 430.655 174.261 439.805 174.063C442.884 173.994 450.046 172.883 455.717 171.589C470.648 168.185 482.192 179.935 482.259 198.602C482.297 208.465 483.142 210.823 485.411 207.379C487.117 204.788 488.535 196.882 488.564 189.81C488.631 171.903 481.721 166.559 458.508 166.559C442.442 166.559 438.928 165.397 430.757 157.38C422.513 149.292 421.402 145.982 421.402 129.503C421.402 117.088 419.859 109.552 416.806 107.065C414.281 105.008 411.295 99.2209 410.172 94.2063C407.55 82.5035 391.481 69.218 379.943 69.218C375.011 69.218 369.186 67.0985 366.994 64.508C363.63 60.5296 364.283 59.798 371.193 59.798C383.32 59.798 393.625 64.4232 407.445 76.0727L419.802 86.4881L411.519 75.6645C401.434 62.4796 385.608 54.0424 364.93 50.827C354.522 49.2099 344.274 44.5783 333.895 36.7974C305.964 15.866 290.417 8.44305 273.992 8.20755C262.163 8.03799 259.474 7.10541 262.048 4.06273C268.004 -2.9866 259.238 -0.333295 249.201 7.9532ZM31.2906 273.445C39.9031 261.415 46.9473 250.811 46.9473 249.885C46.9473 248.959 44.1789 248.199 40.7928 248.199C26.6723 248.199 8.40723 276.839 13.7744 290.564C15.0706 293.88 20.3738 288.699 31.2906 273.445ZM62.0311 188.985C59.5604 194.784 55.1565 201.469 52.2441 203.837C42.5626 211.715 45.7279 193.041 55.5949 184.067C66.3101 174.317 67.7984 175.454 62.0311 188.985ZM52.9738 223.079C54.5292 223.079 56.5551 220.253 57.4769 216.799C59.1219 210.626 56.4783 208.497 52.2825 212.613C49.178 215.659 49.6677 223.079 52.9738 223.079ZM158.788 42.7352C153.776 48.6604 136.589 57.7319 134.413 55.5998C132.633 53.8508 155.792 37.8179 160.1 37.8179C161.665 37.8179 161.076 40.0316 158.788 42.7352ZM393.654 89.7789C407.39 102.537 413.231 101.937 403.265 88.7929C399.684 84.0703 393.299 79.7999 389.077 79.3006C382.049 78.4748 382.44 79.3666 393.654 89.7789Z" fill="url(#paint1_linear_23_147)"/>
<g filter="url(#filter0_i_23_147)">
<path d="M126.047 248.445C131.793 271.71 140.391 289.602 128.086 292.641C115.782 295.68 101.149 279.284 95.4033 256.019C89.6577 232.755 94.9751 211.431 107.28 208.393C119.585 205.354 120.302 225.181 126.047 248.445Z" fill="#834315"/>
</g>
<g filter="url(#filter1_i_23_147)">
<path d="M371.699 248.266C365.954 271.531 357.355 289.423 369.66 292.462C381.965 295.501 396.598 279.105 402.343 255.84C408.089 232.576 402.772 211.253 390.467 208.214C378.162 205.175 377.445 225.002 371.699 248.266Z" fill="#834315"/>
</g>
<path d="M383 208.94C383 286.78 322.558 388 248 388C173.442 388 113 286.78 113 208.94C113 131.101 173.442 68 248 68C322.558 68 383 131.101 383 208.94Z" fill="#834315"/>
<g filter="url(#filter2_d_23_147)">
<path d="M266.443 270.5C269.639 299 258.469 301 248.634 301C238.798 301 226.715 296.5 230.825 270.5C234.935 244.5 238.798 234 248.634 234C258.469 234 263.246 242 266.443 270.5Z" fill="#7B3E13"/>
</g>
<g filter="url(#filter3_f_23_147)">
<path d="M260 291C260 296.523 255.075 301 249 301C242.925 301 238 296.523 238 291C238 285.477 242.925 277.5 249 277.5C255.075 277.5 260 285.477 260 291Z" fill="#9F541F" fill-opacity="0.35"/>
<path d="M260 291C260 296.523 255.075 301 249 301C242.925 301 238 296.523 238 291C238 285.477 242.925 277.5 249 277.5C255.075 277.5 260 285.477 260 291Z" fill="#863202" fill-opacity="0.2"/>
</g>
<g filter="url(#filter4_f_23_147)">
<ellipse cx="170.478" cy="273.092" rx="40.9257" ry="19.5993" transform="rotate(5 170.478 273.092)" fill="#863202"/>
</g>
<g filter="url(#filter5_f_23_147)">
<ellipse cx="40.9257" cy="19.5993" rx="40.9257" ry="19.5993" transform="matrix(-0.996195 0.0871557 0.0871557 0.996195 361.794 250)" fill="#863202"/>
</g>
<path d="M158.5 249.103C158.487 249.931 159.148 250.614 159.976 250.627C160.805 250.64 161.487 249.979 161.5 249.151L158.5 249.103ZM164.434 235.072C162.015 237.517 160.51 239.597 159.628 241.848C158.749 244.093 158.543 246.378 158.5 249.103L161.5 249.151C161.541 246.522 161.743 244.675 162.422 242.942C163.098 241.216 164.3 239.472 166.566 237.182L164.434 235.072Z" fill="#222222"/>
<path d="M166.5 251.103C166.487 251.931 167.148 252.614 167.976 252.627C168.805 252.64 169.487 251.979 169.5 251.151L166.5 251.103ZM172.434 237.072C170.015 239.517 168.51 241.597 167.628 243.848C166.749 246.093 166.543 248.378 166.5 251.103L169.5 251.151C169.541 248.522 169.743 246.675 170.422 244.942C171.098 243.216 172.3 241.472 174.566 239.182L172.434 237.072Z" fill="#222222"/>
<path d="M174.5 252.103C174.487 252.931 175.148 253.614 175.976 253.627C176.805 253.64 177.487 252.979 177.5 252.151L174.5 252.103ZM180.434 238.072C178.015 240.517 176.51 242.597 175.628 244.848C174.749 247.093 174.543 249.378 174.5 252.103L177.5 252.151C177.541 249.522 177.743 247.675 178.422 245.942C179.098 244.216 180.3 242.472 182.566 240.182L180.434 238.072Z" fill="#222222"/>
<path d="M228 207.422C228 230.894 228 244.127 188 244.127C147.969 244.127 148 230.894 148 207.422C148 183.95 165.618 159.127 188 159.127C210.382 159.127 228 183.95 228 207.422Z" fill="#222222"/>
<path d="M155.568 236.987C141.062 235.375 134.521 230.011 127 221.007C136.956 224.757 148 230.127 150 201.627L155.568 236.987Z" fill="#222222"/>
<path d="M225.5 193.127C230.5 205.127 229.631 221.3 231 240.627C222.492 238.834 205 244.627 199 243.627L225.5 193.127Z" fill="#222222"/>
<g filter="url(#filter6_dd_23_147)">
<mask id="mask0_23_147" style="mask-type:alpha" maskUnits="userSpaceOnUse" x="152" y="163" width="76" height="82">
<path d="M228 209.15C228 231.517 228 244.127 190 244.127C151.97 244.127 152 231.517 152 209.15C152 186.782 168.737 163.127 190 163.127C211.263 163.127 228 186.782 228 209.15Z" fill="white"/>
</mask>
<g mask="url(#mask0_23_147)">
<path d="M228 209.15C228 231.517 228 244.127 190 244.127C151.97 244.127 152 231.517 152 209.15C152 186.782 168.737 163.127 190 163.127C211.263 163.127 228 186.782 228 209.15Z" fill="url(#paint2_linear_23_147)"/>
<path d="M223.926 203.141C225.307 222.888 212.381 239.535 195.478 240.717C178.575 241.899 163.458 227.213 162.077 207.466C160.697 187.72 173.623 171.072 190.525 169.89C207.428 168.708 222.545 183.395 223.926 203.141Z" fill="#441603"/>
<path d="M223.926 203.141C225.307 222.888 212.381 239.535 195.478 240.717C178.575 241.899 163.458 227.213 162.077 207.466C160.697 187.72 173.623 171.072 190.525 169.89C207.428 168.708 222.545 183.395 223.926 203.141Z" fill="url(#paint3_radial_23_147)" fill-opacity="0.2"/>
<path d="M223.926 203.141C225.307 222.888 212.381 239.535 195.478 240.717C178.575 241.899 163.458 227.213 162.077 207.466C160.697 187.72 173.623 171.072 190.525 169.89C207.428 168.708 222.545 183.395 223.926 203.141Z" stroke="#290E03" stroke-width="3"/>
<g filter="url(#filter7_f_23_147)">
<ellipse cx="193.283" cy="205.487" rx="19.2307" ry="22.8977" transform="rotate(-4 193.283 205.487)" fill="black"/>
</g>
<ellipse cx="209.273" cy="187.125" rx="15" ry="17" transform="rotate(-4 209.273 187.125)" fill="white" fill-opacity="0.8"/>
</g>
</g>
<path d="M136.5 164.627C144 140.283 186.88 138.199 220.5 154.627" stroke="#222222" stroke-width="6" stroke-linecap="round"/>
<path d="M339.5 249.23C339.513 250.058 338.852 250.74 338.024 250.753C337.195 250.767 336.513 250.106 336.5 249.277L339.5 249.23ZM333.566 235.199C335.985 237.644 337.49 239.724 338.372 241.975C339.251 244.22 339.457 246.505 339.5 249.23L336.5 249.277C336.459 246.649 336.257 244.802 335.578 243.069C334.902 241.342 333.7 239.599 331.434 237.309L333.566 235.199Z" fill="#222222"/>
<path d="M331.5 251.23C331.513 252.058 330.852 252.74 330.024 252.753C329.195 252.767 328.513 252.106 328.5 251.277L331.5 251.23ZM325.566 237.199C327.985 239.644 329.49 241.724 330.372 243.975C331.251 246.22 331.457 248.505 331.5 251.23L328.5 251.277C328.459 248.649 328.257 246.802 327.578 245.069C326.902 243.342 325.7 241.599 323.434 239.309L325.566 237.199Z" fill="#222222"/>
<path d="M323.5 252.23C323.513 253.058 322.852 253.74 322.024 253.753C321.195 253.767 320.513 253.106 320.5 252.277L323.5 252.23ZM317.566 238.199C319.985 240.644 321.49 242.724 322.372 244.975C323.251 247.22 323.457 249.505 323.5 252.23L320.5 252.277C320.459 249.649 320.257 247.802 319.578 246.069C318.902 244.342 317.7 242.599 315.434 240.309L317.566 238.199Z" fill="#222222"/>
<path d="M270 207.549C270 231.021 270 244.254 310 244.254C350.031 244.254 350 231.021 350 207.549C350 184.077 332.382 159.254 310 159.254C287.618 159.254 270 184.077 270 207.549Z" fill="#222222"/>
<path d="M342.432 237.114C356.938 235.502 363.479 230.138 371 221.134C361.044 224.883 350 230.254 348 201.754L342.432 237.114Z" fill="#222222"/>
<path d="M272.5 193.254C267.5 205.254 268.369 221.426 267 240.754C275.508 238.961 293 244.754 299 243.754L272.5 193.254Z" fill="#222222"/>
<g filter="url(#filter8_dd_23_147)">
<mask id="mask1_23_147" style="mask-type:alpha" maskUnits="userSpaceOnUse" x="270" y="163" width="76" height="82">
<path d="M270 209.276C270 231.644 270 244.254 308 244.254C346.03 244.254 346 231.644 346 209.276C346 186.909 329.263 163.254 308 163.254C286.737 163.254 270 186.909 270 209.276Z" fill="white"/>
</mask>
<g mask="url(#mask1_23_147)">
<path d="M270 209.276C270 231.644 270 244.254 308 244.254C346.03 244.254 346 231.644 346 209.276C346 186.909 329.263 163.254 308 163.254C286.737 163.254 270 186.909 270 209.276Z" fill="url(#paint4_linear_23_147)"/>
<path d="M335.923 207.593C334.542 227.34 319.425 242.026 302.522 240.844C285.619 239.662 272.693 223.015 274.074 203.268C275.454 183.522 290.572 168.835 307.475 170.017C324.377 171.199 337.303 187.847 335.923 207.593Z" fill="#441603"/>
<path d="M335.923 207.593C334.542 227.34 319.425 242.026 302.522 240.844C285.619 239.662 272.693 223.015 274.074 203.268C275.454 183.522 290.572 168.835 307.475 170.017C324.377 171.199 337.303 187.847 335.923 207.593Z" fill="url(#paint5_radial_23_147)" fill-opacity="0.2"/>
<path d="M335.923 207.593C334.542 227.34 319.425 242.026 302.522 240.844C285.619 239.662 272.693 223.015 274.074 203.268C275.454 183.522 290.572 168.835 307.475 170.017C324.377 171.199 337.303 187.847 335.923 207.593Z" stroke="#290E03" stroke-width="3"/>
<g filter="url(#filter9_f_23_147)">
<ellipse cx="305.251" cy="205.651" rx="19.2307" ry="22.8977" transform="rotate(4 305.251 205.651)" fill="black"/>
</g>
<ellipse cx="323.641" cy="189.693" rx="15" ry="17" transform="rotate(4 323.641 189.693)" fill="white" fill-opacity="0.8"/>
</g>
</g>
<path d="M361.5 164.754C354 140.41 311.12 138.326 277.5 154.754" stroke="#222222" stroke-width="6" stroke-linecap="round"/>
<path d="M226 330C243.573 340.286 253.427 339.636 271 330" stroke="#873303" stroke-width="10" stroke-linecap="round"/>
<path d="M226 330C243.573 340.286 253.427 339.636 271 330" stroke="#710808" stroke-opacity="0.2" stroke-width="10" stroke-linecap="round"/>
<path d="M175.504 151.587C173.129 153.917 172.713 152.689 174.105 147.467C175.238 143.222 176.688 141.796 177.488 144.148C178.256 146.415 177.366 149.759 175.504 151.587Z" fill="black"/>
<path d="M175.504 151.587C173.129 153.917 172.713 152.689 174.105 147.467C175.238 143.222 176.688 141.796 177.488 144.148C178.256 146.415 177.366 149.759 175.504 151.587Z" fill="url(#paint6_linear_23_147)"/>
<path fill-rule="evenodd" clip-rule="evenodd" d="M249.201 7.9532C240.809 14.8832 238.575 15.3731 229.531 12.2802C215.577 7.50733 192.101 10.5845 183.569 18.3027C179.715 21.7881 167.058 28.8343 155.434 33.962C143.813 39.0896 132.032 46.4686 129.254 50.356C126.476 54.2465 120.862 59.057 116.782 61.0477C111.83 63.4593 108.476 68.8224 106.719 77.1466C101.765 100.587 94.4327 111.04 76.2412 120.604C60.0148 129.136 59.2339 130.109 61.1414 139.444C65.3116 159.883 64.9371 161.798 56.5487 162.9C52.148 163.478 47.1073 165.343 45.3471 167.045C43.2379 169.086 45.0302 169.444 50.599 168.097C62.9465 165.108 64.0858 170.597 53.233 180.795C46.5825 187.05 43.7468 192.721 43.7468 199.78C43.7468 211.577 39.8967 213.659 18.0695 213.659C9.51782 213.659 1.50381 215.27 0.262032 217.242C-1.38301 219.851 4.57308 220.41 22.2333 219.298C44.6109 217.888 46.592 218.262 48.1699 224.187L47.8039 231.881L46.9473 249.885C46.9473 250.811 39.9031 261.415 31.2906 273.445L127 279.5C126.402 278.5 124 273 121 263.5C118 254 128.102 252.033 136.055 247.423C149.27 239.762 156.736 220.196 157.924 190.109C159.655 146.208 162.007 134.386 168.671 136.094C172.201 137.002 173.932 136.166 173.071 133.971C171.814 130.75 222.544 97.4782 228.715 97.4782C230.078 97.4782 233.685 101.614 236.729 106.669C240 112.104 246.973 117.386 253.794 119.593C266.704 123.773 289.06 121.92 294.571 116.215C297.342 113.345 296.318 113.031 290.183 114.864C276.571 118.937 260.492 116.846 253.63 110.11L247.156 103.758H267.956C281.839 103.758 291.188 105.429 296.065 108.779C302.911 113.483 303.25 115.307 301.474 137.824C299.669 160.724 300.072 162.731 310.083 180.689C319.566 197.695 321.909 199.818 334.189 202.487C346.21 205.102 347.791 206.462 347.791 214.18C347.791 217.927 360.738 217.86 370.419 217.81C377.612 217.773 383.003 217.746 379.943 219.298C366.815 225.958 360.943 244.205 377 253L393.654 275.862L379.943 242.5C374.986 238.095 381.389 233.045 384.5 231.108C385.782 230.31 388.108 228.059 390.485 225.759C393.746 222.604 397.104 219.355 398 219.628L453.407 197.714C433.177 178.651 430.655 174.261 439.805 174.063C442.884 173.994 450.046 172.883 455.717 171.589C470.648 168.185 482.192 179.935 482.259 198.602C482.297 208.465 483.142 210.823 485.411 207.379C487.117 204.788 488.535 196.882 488.564 189.81C488.631 171.903 481.721 166.559 458.508 166.559C442.442 166.559 438.928 165.397 430.757 157.38C422.513 149.292 421.402 145.982 421.402 129.503C421.402 117.088 419.859 109.552 416.806 107.065C414.281 105.008 411.295 99.2209 410.172 94.2063C407.55 82.5035 391.481 69.218 379.943 69.218C375.011 69.218 369.186 67.0985 366.994 64.508C363.63 60.5296 364.283 59.798 371.193 59.798C383.32 59.798 393.625 64.4232 407.445 76.0727L419.802 86.4881L411.519 75.6645C401.434 62.4796 385.608 54.0424 364.93 50.827C354.522 49.2099 344.274 44.5783 333.895 36.7974C305.964 15.866 290.417 8.44305 273.992 8.20755C262.163 8.03799 259.474 7.10541 262.048 4.06273C268.004 -2.9866 259.238 -0.333296 249.201 7.9532ZM126.402 245.059C131.776 245.059 142.961 231.503 142.961 228.373C142.961 224.872 138.465 225.889 130.873 231.108C123.983 235.84 121.029 245.059 126.402 245.059ZM57.4769 216.799C56.5551 220.253 54.5292 223.079 52.9738 223.079C49.6677 223.079 49.178 215.659 52.2825 212.613C56.4783 208.497 59.1219 210.626 57.4769 216.799ZM52.2441 203.837C55.1565 201.469 59.5604 194.784 62.0311 188.985C67.7984 175.454 66.3101 174.317 55.5949 184.067C45.7279 193.041 42.5626 211.715 52.2441 203.837ZM158.788 42.7352C153.776 48.6604 136.589 57.7319 134.413 55.5998C132.633 53.8508 155.792 37.8179 160.1 37.8179C161.665 37.8179 161.076 40.0316 158.788 42.7352ZM393.654 89.7789C407.39 102.537 413.231 101.937 403.265 88.7929C399.684 84.0703 393.299 79.7999 389.077 79.3006C382.049 78.4748 382.44 79.3666 393.654 89.7789Z" fill="black"/>
<path fill-rule="evenodd" clip-rule="evenodd" d="M249.201 7.9532C240.809 14.8832 238.575 15.3731 229.531 12.2802C215.577 7.50733 192.101 10.5845 183.569 18.3027C179.715 21.7881 167.058 28.8343 155.434 33.962C143.813 39.0896 132.032 46.4686 129.254 50.356C126.476 54.2465 120.862 59.057 116.782 61.0477C111.83 63.4593 108.476 68.8224 106.719 77.1466C101.765 100.587 94.4327 111.04 76.2412 120.604C60.0148 129.136 59.2339 130.109 61.1414 139.444C65.3116 159.883 64.9371 161.798 56.5487 162.9C52.148 163.478 47.1073 165.343 45.3471 167.045C43.2379 169.086 45.0302 169.444 50.599 168.097C62.9465 165.108 64.0858 170.597 53.233 180.795C46.5825 187.05 43.7468 192.721 43.7468 199.78C43.7468 211.577 39.8967 213.659 18.0695 213.659C9.51782 213.659 1.50381 215.27 0.262032 217.242C-1.38301 219.851 4.57308 220.41 22.2333 219.298C44.6109 217.888 46.592 218.262 48.1699 224.187L47.8039 231.881L46.9473 249.885C46.9473 250.811 39.9031 261.415 31.2906 273.445L127 279.5C126.402 278.5 124 273 121 263.5C118 254 128.102 252.033 136.055 247.423C149.27 239.762 156.736 220.196 157.924 190.109C159.655 146.208 162.007 134.386 168.671 136.094C172.201 137.002 173.932 136.166 173.071 133.971C171.814 130.75 222.544 97.4782 228.715 97.4782C230.078 97.4782 233.685 101.614 236.729 106.669C240 112.104 246.973 117.386 253.794 119.593C266.704 123.773 289.06 121.92 294.571 116.215C297.342 113.345 296.318 113.031 290.183 114.864C276.571 118.937 260.492 116.846 253.63 110.11L247.156 103.758H267.956C281.839 103.758 291.188 105.429 296.065 108.779C302.911 113.483 303.25 115.307 301.474 137.824C299.669 160.724 300.072 162.731 310.083 180.689C319.566 197.695 321.909 199.818 334.189 202.487C346.21 205.102 347.791 206.462 347.791 214.18C347.791 217.927 360.738 217.86 370.419 217.81C377.612 217.773 383.003 217.746 379.943 219.298C366.815 225.958 360.943 244.205 377 253L393.654 275.862L379.943 242.5C374.986 238.095 381.389 233.045 384.5 231.108C385.782 230.31 388.108 228.059 390.485 225.759C393.746 222.604 397.104 219.355 398 219.628L453.407 197.714C433.177 178.651 430.655 174.261 439.805 174.063C442.884 173.994 450.046 172.883 455.717 171.589C470.648 168.185 482.192 179.935 482.259 198.602C482.297 208.465 483.142 210.823 485.411 207.379C487.117 204.788 488.535 196.882 488.564 189.81C488.631 171.903 481.721 166.559 458.508 166.559C442.442 166.559 438.928 165.397 430.757 157.38C422.513 149.292 421.402 145.982 421.402 129.503C421.402 117.088 419.859 109.552 416.806 107.065C414.281 105.008 411.295 99.2209 410.172 94.2063C407.55 82.5035 391.481 69.218 379.943 69.218C375.011 69.218 369.186 67.0985 366.994 64.508C363.63 60.5296 364.283 59.798 371.193 59.798C383.32 59.798 393.625 64.4232 407.445 76.0727L419.802 86.4881L411.519 75.6645C401.434 62.4796 385.608 54.0424 364.93 50.827C354.522 49.2099 344.274 44.5783 333.895 36.7974C305.964 15.866 290.417 8.44305 273.992 8.20755C262.163 8.03799 259.474 7.10541 262.048 4.06273C268.004 -2.9866 259.238 -0.333296 249.201 7.9532ZM126.402 245.059C131.776 245.059 142.961 231.503 142.961 228.373C142.961 224.872 138.465 225.889 130.873 231.108C123.983 235.84 121.029 245.059 126.402 245.059ZM57.4769 216.799C56.5551 220.253 54.5292 223.079 52.9738 223.079C49.6677 223.079 49.178 215.659 52.2825 212.613C56.4783 208.497 59.1219 210.626 57.4769 216.799ZM52.2441 203.837C55.1565 201.469 59.5604 194.784 62.0311 188.985C67.7984 175.454 66.3101 174.317 55.5949 184.067C45.7279 193.041 42.5626 211.715 52.2441 203.837ZM158.788 42.7352C153.776 48.6604 136.589 57.7319 134.413 55.5998C132.633 53.8508 155.792 37.8179 160.1 37.8179C161.665 37.8179 161.076 40.0316 158.788 42.7352ZM393.654 89.7789C407.39 102.537 413.231 101.937 403.265 88.7929C399.684 84.0703 393.299 79.7999 389.077 79.3006C382.049 78.4748 382.44 79.3666 393.654 89.7789Z" fill="url(#paint7_linear_23_147)"/>
<defs>
<filter id="filter0_i_23_147" x="89.0883" y="208.084" width="45.2755" height="84.9202" filterUnits="userSpaceOnUse" color-interpolation-filters="sRGB">
<feFlood flood-opacity="0" result="BackgroundImageFix"/>
<feBlend mode="normal" in="SourceGraphic" in2="BackgroundImageFix" result="shape"/>
<feColorMatrix in="SourceAlpha" type="matrix" values="0 0 0 0 0 0 0 0 0 0 0 0 0 0 0 0 0 0 127 0" result="hardAlpha"/>
<feOffset dx="-12"/>
<feGaussianBlur stdDeviation="2"/>
<feComposite in2="hardAlpha" operator="arithmetic" k2="-1" k3="1"/>
<feColorMatrix type="matrix" values="0 0 0 0 0.431373 0 0 0 0 0.203922 0 0 0 0 0.0627451 0 0 0 0.35 0"/>
<feBlend mode="normal" in2="shape" result="effect1_innerShadow_23_147"/>
</filter>
<filter id="filter1_i_23_147" x="363.383" y="207.905" width="45.2754" height="84.9191" filterUnits="userSpaceOnUse" color-interpolation-filters="sRGB">
<feFlood flood-opacity="0" result="BackgroundImageFix"/>
<feBlend mode="normal" in="SourceGraphic" in2="BackgroundImageFix" result="shape"/>
<feColorMatrix in="SourceAlpha" type="matrix" values="0 0 0 0 0 0 0 0 0 0 0 0 0 0 0 0 0 0 127 0" result="hardAlpha"/>
<feOffset dx="12"/>
<feGaussianBlur stdDeviation="2"/>
<feComposite in2="hardAlpha" operator="arithmetic" k2="-1" k3="1"/>
<feColorMatrix type="matrix" values="0 0 0 0 0.431373 0 0 0 0 0.203922 0 0 0 0 0.0627451 0 0 0 0.35 0"/>
<feBlend mode="normal" in2="shape" result="effect1_innerShadow_23_147"/>
</filter>
<filter id="filter2_d_23_147" x="226" y="234" width="45" height="75" filterUnits="userSpaceOnUse" color-interpolation-filters="sRGB">
<feFlood flood-opacity="0" result="BackgroundImageFix"/>
<feColorMatrix in="SourceAlpha" type="matrix" values="0 0 0 0 0 0 0 0 0 0 0 0 0 0 0 0 0 0 127 0" result="hardAlpha"/>
<feOffset dy="4"/>
<feGaussianBlur stdDeviation="2"/>
<feComposite in2="hardAlpha" operator="out"/>
<feColorMatrix type="matrix" values="0 0 0 0 0.45098 0 0 0 0 0.219608 0 0 0 0 0.0666667 0 0 0 1 0"/>
<feBlend mode="normal" in2="BackgroundImageFix" result="effect1_dropShadow_23_147"/>
<feBlend mode="normal" in="SourceGraphic" in2="effect1_dropShadow_23_147" result="shape"/>
</filter>
<filter id="filter3_f_23_147" x="234" y="273.5" width="30" height="31.5" filterUnits="userSpaceOnUse" color-interpolation-filters="sRGB">
<feFlood flood-opacity="0" result="BackgroundImageFix"/>
<feBlend mode="normal" in="SourceGraphic" in2="BackgroundImageFix" result="shape"/>
<feGaussianBlur stdDeviation="2" result="effect1_foregroundBlur_23_147"/>
</filter>
<filter id="filter4_f_23_147" x="117.672" y="241.24" width="105.613" height="63.7026" filterUnits="userSpaceOnUse" color-interpolation-filters="sRGB">
<feFlood flood-opacity="0" result="BackgroundImageFix"/>
<feBlend mode="normal" in="SourceGraphic" in2="BackgroundImageFix" result="shape"/>
<feGaussianBlur stdDeviation="6" result="effect1_foregroundBlur_23_147"/>
</filter>
<filter id="filter5_f_23_147" x="269.926" y="241.24" width="105.613" height="63.7026" filterUnits="userSpaceOnUse" color-interpolation-filters="sRGB">
<feFlood flood-opacity="0" result="BackgroundImageFix"/>
<feBlend mode="normal" in="SourceGraphic" in2="BackgroundImageFix" result="shape"/>
<feGaussianBlur stdDeviation="6" result="effect1_foregroundBlur_23_147"/>
</filter>
<filter id="filter6_dd_23_147" x="130" y="143.127" width="100" height="111" filterUnits="userSpaceOnUse" color-interpolation-filters="sRGB">
<feFlood flood-opacity="0" result="BackgroundImageFix"/>
<feColorMatrix in="SourceAlpha" type="matrix" values="0 0 0 0 0 0 0 0 0 0 0 0 0 0 0 0 0 0 127 0" result="hardAlpha"/>
<feOffset dx="-10" dy="-8"/>
<feGaussianBlur stdDeviation="6"/>
<feComposite in2="hardAlpha" operator="out"/>
<feColorMatrix type="matrix" values="0 0 0 0 0.266667 0 0 0 0 0.0862745 0 0 0 0 0.0117647 0 0 0 0.35 0"/>
<feBlend mode="normal" in2="BackgroundImageFix" result="effect1_dropShadow_23_147"/>
<feColorMatrix in="SourceAlpha" type="matrix" values="0 0 0 0 0 0 0 0 0 0 0 0 0 0 0 0 0 0 127 0" result="hardAlpha"/>
<feOffset dx="-4" dy="6"/>
<feGaussianBlur stdDeviation="2"/>
<feComposite in2="hardAlpha" operator="out"/>
<feColorMatrix type="matrix" values="0 0 0 0 0.266667 0 0 0 0 0.0862745 0 0 0 0 0.0117647 0 0 0 0.35 0"/>
<feBlend mode="normal" in2="effect1_dropShadow_23_147" result="effect2_dropShadow_23_147"/>
<feBlend mode="normal" in="SourceGraphic" in2="effect2_dropShadow_23_147" result="shape"/>
</filter>
<filter id="filter7_f_23_147" x="172.532" y="181.105" width="41.5026" height="48.764" filterUnits="userSpaceOnUse" color-interpolation-filters="sRGB">
<feFlood flood-opacity="0" result="BackgroundImageFix"/>
<feBlend mode="normal" in="SourceGraphic" in2="BackgroundImageFix" result="shape"/>
<feGaussianBlur stdDeviation="0.75" result="effect1_foregroundBlur_23_147"/>
</filter>
<filter id="filter8_dd_23_147" x="268" y="143.254" width="100" height="113" filterUnits="userSpaceOnUse" color-interpolation-filters="sRGB">
<feFlood flood-opacity="0" result="BackgroundImageFix"/>
<feColorMatrix in="SourceAlpha" type="matrix" values="0 0 0 0 0 0 0 0 0 0 0 0 0 0 0 0 0 0 127 0" result="hardAlpha"/>
<feOffset dx="10" dy="-8"/>
<feGaussianBlur stdDeviation="6"/>
<feComposite in2="hardAlpha" operator="out"/>
<feColorMatrix type="matrix" values="0 0 0 0 0.266667 0 0 0 0 0.0862745 0 0 0 0 0.0117647 0 0 0 0.35 0"/>
<feBlend mode="normal" in2="BackgroundImageFix" result="effect1_dropShadow_23_147"/>
<feColorMatrix in="SourceAlpha" type="matrix" values="0 0 0 0 0 0 0 0 0 0 0 0 0 0 0 0 0 0 127 0" result="hardAlpha"/>
<feOffset dx="4" dy="6"/>
<feGaussianBlur stdDeviation="3"/>
<feComposite in2="hardAlpha" operator="out"/>
<feColorMatrix type="matrix" values="0 0 0 0 0.266667 0 0 0 0 0.0862745 0 0 0 0 0.0117647 0 0 0 0.35 0"/>
<feBlend mode="normal" in2="effect1_dropShadow_23_147" result="effect2_dropShadow_23_147"/>
<feBlend mode="normal" in="SourceGraphic" in2="effect2_dropShadow_23_147" result="shape"/>
</filter>
<filter id="filter9_f_23_147" x="284.5" y="181.269" width="41.5026" height="48.764" filterUnits="userSpaceOnUse" color-interpolation-filters="sRGB">
<feFlood flood-opacity="0" result="BackgroundImageFix"/>
<feBlend mode="normal" in="SourceGraphic" in2="BackgroundImageFix" result="shape"/>
<feGaussianBlur stdDeviation="0.75" result="effect1_foregroundBlur_23_147"/>
</filter>
<linearGradient id="paint0_linear_23_147" x1="257" y1="7.5" x2="257" y2="468" gradientUnits="userSpaceOnUse">
<stop stop-opacity="0"/>
<stop offset="1" stop-color="#863202"/>
</linearGradient>
<linearGradient id="paint1_linear_23_147" x1="257" y1="7.5" x2="257" y2="468" gradientUnits="userSpaceOnUse">
<stop stop-opacity="0"/>
<stop offset="1" stop-color="#863202"/>
</linearGradient>
<linearGradient id="paint2_linear_23_147" x1="190" y1="163.127" x2="190" y2="244.127" gradientUnits="userSpaceOnUse">
<stop stop-color="white"/>
<stop offset="1" stop-color="#EBF5FA"/>
</linearGradient>
<radialGradient id="paint3_radial_23_147" cx="0" cy="0" r="1" gradientUnits="userSpaceOnUse" gradientTransform="translate(193.002 205.304) rotate(86) scale(37 32.5)">
<stop stop-opacity="0"/>
<stop offset="1"/>
</radialGradient>
<linearGradient id="paint4_linear_23_147" x1="308" y1="163.254" x2="308" y2="244.254" gradientUnits="userSpaceOnUse">
<stop stop-color="white"/>
<stop offset="1" stop-color="#EBF5FA"/>
</linearGradient>
<radialGradient id="paint5_radial_23_147" cx="0" cy="0" r="1" gradientUnits="userSpaceOnUse" gradientTransform="translate(304.998 205.431) rotate(94) scale(37 32.5)">
<stop stop-opacity="0"/>
<stop offset="1"/>
</radialGradient>
<linearGradient id="paint6_linear_23_147" x1="244.282" y1="7.06337" x2="244.282" y2="440.754" gradientUnits="userSpaceOnUse">
<stop stop-opacity="0"/>
<stop offset="1" stop-color="#863202"/>
</linearGradient>
<linearGradient id="paint7_linear_23_147" x1="244.282" y1="7.06337" x2="244.282" y2="440.754" gradientUnits="userSpaceOnUse">
<stop stop-opacity="0"/>
<stop offset="1" stop-color="#863202"/>
</linearGradient>
</defs>
</svg>
